<?xml version="1.0" encoding="utf-8" standalone="no"?>
<!DOCTYPE svg PUBLIC "-//W3C//DTD SVG 1.1//EN"
  "http://www.w3.org/Graphics/SVG/1.1/DTD/svg11.dtd">
<svg xmlns:xlink="http://www.w3.org/1999/xlink" width="576pt" height="360pt" viewBox="0 0 576 360" xmlns="http://www.w3.org/2000/svg" version="1.1">
 <metadata>
  <rdf:RDF xmlns:dc="http://purl.org/dc/elements/1.1/" xmlns:cc="http://creativecommons.org/ns#" xmlns:rdf="http://www.w3.org/1999/02/22-rdf-syntax-ns#">
   <cc:Work>
    <dc:type rdf:resource="http://purl.org/dc/dcmitype/StillImage"/>
    <dc:date>2025-12-21T14:36:34.092150</dc:date>
    <dc:format>image/svg+xml</dc:format>
    <dc:creator>
     <cc:Agent>
      <dc:title>Matplotlib v3.10.8, https://matplotlib.org/</dc:title>
     </cc:Agent>
    </dc:creator>
   </cc:Work>
  </rdf:RDF>
 </metadata>
 <defs>
  <style type="text/css">*{stroke-linejoin: round; stroke-linecap: butt}</style>
 </defs>
 <g id="figure_1">
  <g id="patch_1">
   <path d="M 0 360 
L 576 360 
L 576 0 
L 0 0 
z
" style="fill: #ffffff"/>
  </g>
  <g id="axes_1">
   <g id="patch_2">
    <path d="M 54.2 318.04 
L 565.2 318.04 
L 565.2 25.44 
L 54.2 25.44 
z
" style="fill: #ffffff"/>
   </g>
   <g id="FillBetweenPolyCollection_1">
    <defs>
     <path id="mddee20cb45" d="M 77.427273 -59.750068 
L 77.427273 -55.26 
L 77.892283 -55.26 
L 78.357294 -55.26 
L 78.822304 -55.26 
L 79.287315 -55.26 
L 79.752325 -55.26 
L 80.217336 -55.26 
L 80.682346 -55.26 
L 81.147356 -55.26 
L 81.612367 -55.26 
L 82.077377 -55.26 
L 82.542388 -55.26 
L 83.007398 -55.26 
L 83.472409 -55.26 
L 83.937419 -55.26 
L 84.40243 -55.26 
L 84.86744 -55.26 
L 85.332451 -55.26 
L 85.797461 -55.26 
L 86.262472 -55.26 
L 86.727482 -55.26 
L 87.192492 -55.26 
L 87.657503 -55.26 
L 88.122513 -55.26 
L 88.587524 -55.26 
L 89.052534 -55.26 
L 89.517545 -55.26 
L 89.982555 -55.26 
L 90.447566 -55.26 
L 90.912576 -55.26 
L 91.377587 -55.26 
L 91.842597 -55.26 
L 92.307608 -55.26 
L 92.772618 -55.26 
L 93.237629 -55.26 
L 93.702639 -55.26 
L 94.167649 -55.26 
L 94.63266 -55.26 
L 95.09767 -55.26 
L 95.562681 -55.26 
L 96.027691 -55.26 
L 96.492702 -55.26 
L 96.957712 -55.26 
L 97.422723 -55.26 
L 97.887733 -55.26 
L 98.352744 -55.26 
L 98.817754 -55.26 
L 99.282765 -55.26 
L 99.747775 -55.26 
L 100.212786 -55.26 
L 100.677796 -55.26 
L 101.142806 -55.26 
L 101.607817 -55.26 
L 102.072827 -55.26 
L 102.537838 -55.26 
L 103.002848 -55.26 
L 103.467859 -55.26 
L 103.932869 -55.26 
L 104.39788 -55.26 
L 104.86289 -55.26 
L 105.327901 -55.26 
L 105.792911 -55.26 
L 106.257922 -55.26 
L 106.722932 -55.26 
L 107.187942 -55.26 
L 107.652953 -55.26 
L 108.117963 -55.26 
L 108.582974 -55.26 
L 109.047984 -55.26 
L 109.512995 -55.26 
L 109.978005 -55.26 
L 110.443016 -55.26 
L 110.908026 -55.26 
L 111.373037 -55.26 
L 111.838047 -55.26 
L 112.303058 -55.26 
L 112.768068 -55.26 
L 113.233079 -55.26 
L 113.698089 -55.26 
L 114.163099 -55.26 
L 114.62811 -55.26 
L 115.09312 -55.26 
L 115.558131 -55.26 
L 116.023141 -55.26 
L 116.488152 -55.26 
L 116.953162 -55.26 
L 117.418173 -55.26 
L 117.883183 -55.26 
L 118.348194 -55.26 
L 118.813204 -55.26 
L 119.278215 -55.26 
L 119.743225 -55.26 
L 120.208236 -55.26 
L 120.673246 -55.26 
L 121.138256 -55.26 
L 121.603267 -55.26 
L 122.068277 -55.26 
L 122.533288 -55.26 
L 122.998298 -55.26 
L 123.463309 -55.26 
L 123.928319 -55.26 
L 124.39333 -55.26 
L 124.85834 -55.26 
L 125.323351 -55.26 
L 125.788361 -55.26 
L 126.253372 -55.26 
L 126.718382 -55.26 
L 127.183392 -55.26 
L 127.648403 -55.26 
L 128.113413 -55.26 
L 128.578424 -55.26 
L 129.043434 -55.26 
L 129.508445 -55.26 
L 129.973455 -55.26 
L 130.438466 -55.26 
L 130.903476 -55.26 
L 131.368487 -55.26 
L 131.833497 -55.26 
L 132.298508 -55.26 
L 132.763518 -55.26 
L 133.228529 -55.26 
L 133.693539 -55.26 
L 134.158549 -55.26 
L 134.62356 -55.26 
L 135.08857 -55.26 
L 135.553581 -55.26 
L 136.018591 -55.26 
L 136.483602 -55.26 
L 136.948612 -55.26 
L 137.413623 -55.26 
L 137.878633 -55.26 
L 138.343644 -55.26 
L 138.808654 -55.26 
L 139.273665 -55.26 
L 139.738675 -55.26 
L 140.203686 -55.26 
L 140.668696 -55.26 
L 141.133706 -55.26 
L 141.598717 -55.26 
L 142.063727 -55.26 
L 142.528738 -55.26 
L 142.993748 -55.26 
L 143.458759 -55.26 
L 143.923769 -55.26 
L 144.38878 -55.26 
L 144.85379 -55.26 
L 145.318801 -55.26 
L 145.783811 -55.26 
L 146.248822 -55.26 
L 146.713832 -55.26 
L 147.178842 -55.26 
L 147.643853 -55.26 
L 148.108863 -55.26 
L 148.573874 -55.26 
L 149.038884 -55.26 
L 149.503895 -55.26 
L 149.968905 -55.26 
L 150.433916 -55.26 
L 150.898926 -55.26 
L 151.363937 -55.26 
L 151.828947 -55.26 
L 152.293958 -55.26 
L 152.758968 -55.26 
L 153.223979 -55.26 
L 153.688989 -55.26 
L 154.153999 -55.26 
L 154.61901 -55.26 
L 155.08402 -55.26 
L 155.549031 -55.26 
L 156.014041 -55.26 
L 156.479052 -55.26 
L 156.944062 -55.26 
L 157.409073 -55.26 
L 157.874083 -55.26 
L 158.339094 -55.26 
L 158.804104 -55.26 
L 159.269115 -55.26 
L 159.734125 -55.26 
L 160.199135 -55.26 
L 160.664146 -55.26 
L 161.129156 -55.26 
L 161.594167 -55.26 
L 162.059177 -55.26 
L 162.524188 -55.26 
L 162.989198 -55.26 
L 163.454209 -55.26 
L 163.919219 -55.26 
L 164.38423 -55.26 
L 164.84924 -55.26 
L 165.314251 -55.26 
L 165.779261 -55.26 
L 166.244272 -55.26 
L 166.709282 -55.26 
L 167.174292 -55.26 
L 167.639303 -55.26 
L 168.104313 -55.26 
L 168.569324 -55.26 
L 169.034334 -55.26 
L 169.499345 -55.26 
L 169.964355 -55.26 
L 170.429366 -55.26 
L 170.894376 -55.26 
L 171.359387 -55.26 
L 171.824397 -55.26 
L 172.289408 -55.26 
L 172.754418 -55.26 
L 173.219429 -55.26 
L 173.684439 -55.26 
L 174.149449 -55.26 
L 174.61446 -55.26 
L 175.07947 -55.26 
L 175.544481 -55.26 
L 176.009491 -55.26 
L 176.474502 -55.26 
L 176.939512 -55.26 
L 177.404523 -55.26 
L 177.869533 -55.26 
L 178.334544 -55.26 
L 178.799554 -55.26 
L 179.264565 -55.26 
L 179.729575 -55.26 
L 180.194585 -55.26 
L 180.659596 -55.26 
L 181.124606 -55.26 
L 181.589617 -55.26 
L 182.054627 -55.26 
L 182.519638 -55.26 
L 182.984648 -55.26 
L 183.449659 -55.26 
L 183.914669 -55.26 
L 184.37968 -55.26 
L 184.84469 -55.26 
L 185.309701 -55.26 
L 185.774711 -55.26 
L 186.239722 -55.26 
L 186.704732 -55.26 
L 187.169742 -55.26 
L 187.634753 -55.26 
L 188.099763 -55.26 
L 188.564774 -55.26 
L 189.029784 -55.26 
L 189.494795 -55.26 
L 189.959805 -55.26 
L 190.424816 -55.26 
L 190.889826 -55.26 
L 191.354837 -55.26 
L 191.819847 -55.26 
L 192.284858 -55.26 
L 192.749868 -55.26 
L 193.214879 -55.26 
L 193.679889 -55.26 
L 194.144899 -55.26 
L 194.60991 -55.26 
L 195.07492 -55.26 
L 195.539931 -55.26 
L 196.004941 -55.26 
L 196.469952 -55.26 
L 196.934962 -55.26 
L 197.399973 -55.26 
L 197.864983 -55.26 
L 198.329994 -55.26 
L 198.795004 -55.26 
L 199.260015 -55.26 
L 199.725025 -55.26 
L 200.190035 -55.26 
L 200.655046 -55.26 
L 201.120056 -55.26 
L 201.585067 -55.26 
L 202.050077 -55.26 
L 202.515088 -55.26 
L 202.980098 -55.26 
L 203.445109 -55.26 
L 203.910119 -55.26 
L 204.37513 -55.26 
L 204.84014 -55.26 
L 205.305151 -55.26 
L 205.770161 -55.26 
L 206.235172 -55.26 
L 206.700182 -55.26 
L 207.165192 -55.26 
L 207.630203 -55.26 
L 208.095213 -55.26 
L 208.560224 -55.26 
L 209.025234 -55.26 
L 209.490245 -55.26 
L 209.955255 -55.26 
L 210.420266 -55.26 
L 210.885276 -55.26 
L 211.350287 -55.26 
L 211.815297 -55.26 
L 212.280308 -55.26 
L 212.745318 -55.26 
L 213.210329 -55.26 
L 213.675339 -55.26 
L 214.140349 -55.26 
L 214.60536 -55.26 
L 215.07037 -55.26 
L 215.535381 -55.26 
L 216.000391 -55.26 
L 216.465402 -55.26 
L 216.930412 -55.26 
L 217.395423 -55.26 
L 217.860433 -55.26 
L 218.325444 -55.26 
L 218.790454 -55.26 
L 219.255465 -55.26 
L 219.720475 -55.26 
L 220.185485 -55.26 
L 220.650496 -55.26 
L 221.115506 -55.26 
L 221.580517 -55.26 
L 222.045527 -55.26 
L 222.510538 -55.26 
L 222.975548 -55.26 
L 223.440559 -55.26 
L 223.905569 -55.26 
L 224.37058 -55.26 
L 224.83559 -55.26 
L 225.300601 -55.26 
L 225.765611 -55.26 
L 226.230622 -55.26 
L 226.695632 -55.26 
L 227.160642 -55.26 
L 227.625653 -55.26 
L 228.090663 -55.26 
L 228.555674 -55.26 
L 229.020684 -55.26 
L 229.485695 -55.26 
L 229.950705 -55.26 
L 230.415716 -55.26 
L 230.880726 -55.26 
L 231.345737 -55.26 
L 231.810747 -55.26 
L 232.275758 -55.26 
L 232.740768 -55.26 
L 233.205779 -55.26 
L 233.670789 -55.26 
L 234.135799 -55.26 
L 234.60081 -55.26 
L 235.06582 -55.26 
L 235.530831 -55.26 
L 235.995841 -55.26 
L 236.460852 -55.26 
L 236.925862 -55.26 
L 237.390873 -55.26 
L 237.855883 -55.26 
L 238.320894 -55.26 
L 238.785904 -55.26 
L 239.250915 -55.26 
L 239.715925 -55.26 
L 240.180935 -55.26 
L 240.645946 -55.26 
L 241.110956 -55.26 
L 241.575967 -55.26 
L 242.040977 -55.26 
L 242.505988 -55.26 
L 242.970998 -55.26 
L 243.436009 -55.26 
L 243.901019 -55.26 
L 244.36603 -55.26 
L 244.83104 -55.26 
L 245.296051 -55.26 
L 245.761061 -55.26 
L 246.226072 -55.26 
L 246.691082 -55.26 
L 247.156092 -55.26 
L 247.621103 -55.26 
L 248.086113 -55.26 
L 248.551124 -55.26 
L 249.016134 -55.26 
L 249.481145 -55.26 
L 249.946155 -55.26 
L 250.411166 -55.26 
L 250.876176 -55.26 
L 251.341187 -55.26 
L 251.806197 -55.26 
L 252.271208 -55.26 
L 252.736218 -55.26 
L 253.201229 -55.26 
L 253.666239 -55.26 
L 254.131249 -55.26 
L 254.59626 -55.26 
L 255.06127 -55.26 
L 255.526281 -55.26 
L 255.991291 -55.26 
L 256.456302 -55.26 
L 256.921312 -55.26 
L 257.386323 -55.26 
L 257.851333 -55.26 
L 258.316344 -55.26 
L 258.781354 -55.26 
L 259.246365 -55.26 
L 259.711375 -55.26 
L 260.176385 -55.26 
L 260.641396 -55.26 
L 261.106406 -55.26 
L 261.571417 -55.26 
L 262.036427 -55.26 
L 262.501438 -55.26 
L 262.966448 -55.26 
L 263.431459 -55.26 
L 263.896469 -55.26 
L 264.36148 -55.26 
L 264.82649 -55.26 
L 265.291501 -55.26 
L 265.756511 -55.26 
L 266.221522 -55.26 
L 266.686532 -55.26 
L 267.151542 -55.26 
L 267.616553 -55.26 
L 268.081563 -55.26 
L 268.546574 -55.26 
L 269.011584 -55.26 
L 269.476595 -55.26 
L 269.941605 -55.26 
L 270.406616 -55.26 
L 270.871626 -55.26 
L 271.336637 -55.26 
L 271.801647 -55.26 
L 272.266658 -55.26 
L 272.731668 -55.26 
L 273.196678 -55.26 
L 273.661689 -55.26 
L 274.126699 -55.26 
L 274.59171 -55.26 
L 275.05672 -55.26 
L 275.521731 -55.26 
L 275.986741 -55.26 
L 276.451752 -55.26 
L 276.916762 -55.26 
L 277.381773 -55.26 
L 277.846783 -55.26 
L 278.311794 -55.26 
L 278.776804 -55.26 
L 279.241815 -55.26 
L 279.706825 -55.26 
L 280.171835 -55.26 
L 280.636846 -55.26 
L 281.101856 -55.26 
L 281.566867 -55.26 
L 282.031877 -55.26 
L 282.496888 -55.26 
L 282.961898 -55.26 
L 283.426909 -55.26 
L 283.891919 -55.26 
L 284.35693 -55.26 
L 284.82194 -55.26 
L 285.286951 -55.26 
L 285.751961 -55.26 
L 286.216972 -55.26 
L 286.681982 -55.26 
L 287.146992 -55.26 
L 287.612003 -55.26 
L 288.077013 -55.26 
L 288.542024 -55.26 
L 289.007034 -55.26 
L 289.472045 -55.26 
L 289.937055 -55.26 
L 290.402066 -55.26 
L 290.867076 -55.26 
L 291.332087 -55.26 
L 291.797097 -55.26 
L 292.262108 -55.26 
L 292.727118 -55.26 
L 293.192128 -55.26 
L 293.657139 -55.26 
L 294.122149 -55.26 
L 294.58716 -55.26 
L 295.05217 -55.26 
L 295.517181 -55.26 
L 295.982191 -55.26 
L 296.447202 -55.26 
L 296.912212 -55.26 
L 297.377223 -55.26 
L 297.842233 -55.26 
L 298.307244 -55.26 
L 298.772254 -55.26 
L 299.237265 -55.26 
L 299.702275 -55.26 
L 300.167285 -55.26 
L 300.632296 -55.26 
L 301.097306 -55.26 
L 301.562317 -55.26 
L 302.027327 -55.26 
L 302.492338 -55.26 
L 302.957348 -55.26 
L 303.422359 -55.26 
L 303.887369 -55.26 
L 304.35238 -55.26 
L 304.81739 -55.26 
L 305.282401 -55.26 
L 305.747411 -55.26 
L 306.212422 -55.26 
L 306.677432 -55.26 
L 307.142442 -55.26 
L 307.607453 -55.26 
L 308.072463 -55.26 
L 308.537474 -55.26 
L 309.002484 -55.26 
L 309.467495 -55.26 
L 309.932505 -55.26 
L 310.397516 -55.26 
L 310.862526 -55.26 
L 311.327537 -55.26 
L 311.792547 -55.26 
L 312.257558 -55.26 
L 312.722568 -55.26 
L 313.187578 -55.26 
L 313.652589 -55.26 
L 314.117599 -55.26 
L 314.58261 -55.26 
L 315.04762 -55.26 
L 315.512631 -55.26 
L 315.977641 -55.26 
L 316.442652 -55.26 
L 316.907662 -55.26 
L 317.372673 -55.26 
L 317.837683 -55.26 
L 318.302694 -55.26 
L 318.767704 -55.26 
L 319.232715 -55.26 
L 319.697725 -55.26 
L 320.162735 -55.26 
L 320.627746 -55.26 
L 321.092756 -55.26 
L 321.557767 -55.26 
L 322.022777 -55.26 
L 322.487788 -55.26 
L 322.952798 -55.26 
L 323.417809 -55.26 
L 323.882819 -55.26 
L 324.34783 -55.26 
L 324.81284 -55.26 
L 325.277851 -55.26 
L 325.742861 -55.26 
L 326.207872 -55.26 
L 326.672882 -55.26 
L 327.137892 -55.26 
L 327.602903 -55.26 
L 328.067913 -55.26 
L 328.532924 -55.26 
L 328.997934 -55.26 
L 329.462945 -55.26 
L 329.927955 -55.26 
L 330.392966 -55.26 
L 330.857976 -55.26 
L 331.322987 -55.26 
L 331.787997 -55.26 
L 332.253008 -55.26 
L 332.718018 -55.26 
L 333.183028 -55.26 
L 333.648039 -55.26 
L 334.113049 -55.26 
L 334.57806 -55.26 
L 335.04307 -55.26 
L 335.508081 -55.26 
L 335.973091 -55.26 
L 336.438102 -55.26 
L 336.903112 -55.26 
L 337.368123 -55.26 
L 337.833133 -55.26 
L 338.298144 -55.26 
L 338.763154 -55.26 
L 339.228165 -55.26 
L 339.693175 -55.26 
L 340.158185 -55.26 
L 340.623196 -55.26 
L 341.088206 -55.26 
L 341.553217 -55.26 
L 342.018227 -55.26 
L 342.483238 -55.26 
L 342.948248 -55.26 
L 343.413259 -55.26 
L 343.878269 -55.26 
L 344.34328 -55.26 
L 344.80829 -55.26 
L 345.273301 -55.26 
L 345.738311 -55.26 
L 346.203322 -55.26 
L 346.668332 -55.26 
L 347.133342 -55.26 
L 347.598353 -55.26 
L 348.063363 -55.26 
L 348.528374 -55.26 
L 348.993384 -55.26 
L 349.458395 -55.26 
L 349.923405 -55.26 
L 350.388416 -55.26 
L 350.853426 -55.26 
L 351.318437 -55.26 
L 351.783447 -55.26 
L 352.248458 -55.26 
L 352.713468 -55.26 
L 353.178478 -55.26 
L 353.643489 -55.26 
L 354.108499 -55.26 
L 354.57351 -55.26 
L 355.03852 -55.26 
L 355.503531 -55.26 
L 355.968541 -55.26 
L 356.433552 -55.26 
L 356.898562 -55.26 
L 357.363573 -55.26 
L 357.828583 -55.26 
L 358.293594 -55.26 
L 358.758604 -55.26 
L 359.223615 -55.26 
L 359.688625 -55.26 
L 360.153635 -55.26 
L 360.618646 -55.26 
L 361.083656 -55.26 
L 361.548667 -55.26 
L 362.013677 -55.26 
L 362.478688 -55.26 
L 362.943698 -55.26 
L 363.408709 -55.26 
L 363.873719 -55.26 
L 364.33873 -55.26 
L 364.80374 -55.26 
L 365.268751 -55.26 
L 365.733761 -55.26 
L 366.198771 -55.26 
L 366.663782 -55.26 
L 367.128792 -55.26 
L 367.593803 -55.26 
L 368.058813 -55.26 
L 368.523824 -55.26 
L 368.988834 -55.26 
L 369.453845 -55.26 
L 369.918855 -55.26 
L 370.383866 -55.26 
L 370.848876 -55.26 
L 371.313887 -55.26 
L 371.778897 -55.26 
L 372.243908 -55.26 
L 372.708918 -55.26 
L 373.173928 -55.26 
L 373.638939 -55.26 
L 374.103949 -55.26 
L 374.56896 -55.26 
L 375.03397 -55.26 
L 375.498981 -55.26 
L 375.963991 -55.26 
L 376.429002 -55.26 
L 376.894012 -55.26 
L 377.359023 -55.26 
L 377.824033 -55.26 
L 378.289044 -55.26 
L 378.754054 -55.26 
L 379.219065 -55.26 
L 379.684075 -55.26 
L 380.149085 -55.26 
L 380.614096 -55.26 
L 381.079106 -55.26 
L 381.544117 -55.26 
L 382.009127 -55.26 
L 382.474138 -55.26 
L 382.939148 -55.26 
L 383.404159 -55.26 
L 383.869169 -55.26 
L 384.33418 -55.26 
L 384.79919 -55.26 
L 385.264201 -55.26 
L 385.729211 -55.26 
L 386.194221 -55.26 
L 386.659232 -55.26 
L 387.124242 -55.26 
L 387.589253 -55.26 
L 388.054263 -55.26 
L 388.519274 -55.26 
L 388.984284 -55.26 
L 389.449295 -55.26 
L 389.914305 -55.26 
L 390.379316 -55.26 
L 390.844326 -55.26 
L 390.844326 -216.897742 
L 390.844326 -216.897742 
L 390.379316 -217.820572 
L 389.914305 -218.743322 
L 389.449295 -219.665931 
L 388.984284 -220.588336 
L 388.519274 -221.510478 
L 388.054263 -222.432293 
L 387.589253 -223.353719 
L 387.124242 -224.274694 
L 386.659232 -225.195155 
L 386.194221 -226.115039 
L 385.729211 -227.034282 
L 385.264201 -227.95282 
L 384.79919 -228.87059 
L 384.33418 -229.787526 
L 383.869169 -230.703566 
L 383.404159 -231.618643 
L 382.939148 -232.532692 
L 382.474138 -233.445649 
L 382.009127 -234.357448 
L 381.544117 -235.268023 
L 381.079106 -236.177308 
L 380.614096 -237.085238 
L 380.149085 -237.991744 
L 379.684075 -238.896762 
L 379.219065 -239.800224 
L 378.754054 -240.702064 
L 378.289044 -241.602214 
L 377.824033 -242.500607 
L 377.359023 -243.397175 
L 376.894012 -244.291852 
L 376.429002 -245.184569 
L 375.963991 -246.075259 
L 375.498981 -246.963853 
L 375.03397 -247.850285 
L 374.56896 -248.734484 
L 374.103949 -249.616384 
L 373.638939 -250.495916 
L 373.173928 -251.373012 
L 372.708918 -252.247603 
L 372.243908 -253.11962 
L 371.778897 -253.988995 
L 371.313887 -254.85566 
L 370.848876 -255.719545 
L 370.383866 -256.580583 
L 369.918855 -257.438703 
L 369.453845 -258.293839 
L 368.988834 -259.14592 
L 368.523824 -259.994879 
L 368.058813 -260.840646 
L 367.593803 -261.683153 
L 367.128792 -262.522331 
L 366.663782 -263.358112 
L 366.198771 -264.190428 
L 365.733761 -265.019209 
L 365.268751 -265.844388 
L 364.80374 -266.665896 
L 364.33873 -267.483665 
L 363.873719 -268.297627 
L 363.408709 -269.107714 
L 362.943698 -269.913858 
L 362.478688 -270.715991 
L 362.013677 -271.514047 
L 361.548667 -272.307957 
L 361.083656 -273.097654 
L 360.618646 -273.883071 
L 360.153635 -274.664141 
L 359.688625 -275.440797 
L 359.223615 -276.212974 
L 358.758604 -276.980604 
L 358.293594 -277.743621 
L 357.828583 -278.50196 
L 357.363573 -279.255555 
L 356.898562 -280.004341 
L 356.433552 -280.748252 
L 355.968541 -281.487223 
L 355.503531 -282.22119 
L 355.03852 -282.950088 
L 354.57351 -283.673854 
L 354.108499 -284.392424 
L 353.643489 -285.105734 
L 353.178478 -285.813721 
L 352.713468 -286.516322 
L 352.248458 -287.213475 
L 351.783447 -287.905118 
L 351.318437 -288.591189 
L 350.853426 -289.271626 
L 350.388416 -289.946369 
L 349.923405 -290.615357 
L 349.458395 -291.27853 
L 348.993384 -291.935827 
L 348.528374 -292.58719 
L 348.063363 -293.23256 
L 347.598353 -293.871877 
L 347.133342 -294.505084 
L 346.668332 -295.132122 
L 346.203322 -295.752936 
L 345.738311 -296.367467 
L 345.273301 -296.975661 
L 344.80829 -297.577459 
L 344.34328 -298.172809 
L 343.878269 -298.761654 
L 343.413259 -299.34394 
L 342.948248 -299.919613 
L 342.483238 -300.488621 
L 342.018227 -301.05091 
L 341.553217 -301.606428 
L 341.088206 -302.155123 
L 340.623196 -302.696945 
L 340.158185 -303.231842 
L 339.693175 -303.759765 
L 339.228165 -304.280664 
L 338.763154 -304.794491 
L 338.298144 -305.301197 
L 337.833133 -305.800734 
L 337.368123 -306.293055 
L 336.903112 -306.778115 
L 336.438102 -307.255867 
L 335.973091 -307.726266 
L 335.508081 -308.189267 
L 335.04307 -308.644827 
L 334.57806 -309.092902 
L 334.113049 -309.53345 
L 333.648039 -309.966429 
L 333.183028 -310.391798 
L 332.718018 -310.809515 
L 332.253008 -311.219542 
L 331.787997 -311.621839 
L 331.322987 -312.016367 
L 330.857976 -312.403089 
L 330.392966 -312.781968 
L 329.927955 -313.152967 
L 329.462945 -313.51605 
L 328.997934 -313.871183 
L 328.532924 -314.218332 
L 328.067913 -314.557462 
L 327.602903 -314.888542 
L 327.137892 -315.21154 
L 326.672882 -315.526423 
L 326.207872 -315.833162 
L 325.742861 -316.131728 
L 325.277851 -316.42209 
L 324.81284 -316.704222 
L 324.34783 -316.978095 
L 323.882819 -317.243683 
L 323.417809 -317.50096 
L 322.952798 -317.749902 
L 322.487788 -317.990483 
L 322.022777 -318.222682 
L 321.557767 -318.446474 
L 321.092756 -318.661838 
L 320.627746 -318.868754 
L 320.162735 -319.067201 
L 319.697725 -319.257159 
L 319.232715 -319.438611 
L 318.767704 -319.611538 
L 318.302694 -319.775923 
L 317.837683 -319.931751 
L 317.372673 -320.079006 
L 316.907662 -320.217674 
L 316.442652 -320.347741 
L 315.977641 -320.469195 
L 315.512631 -320.582023 
L 315.04762 -320.686214 
L 314.58261 -320.781759 
L 314.117599 -320.868648 
L 313.652589 -320.946872 
L 313.187578 -321.016424 
L 312.722568 -321.077297 
L 312.257558 -321.129485 
L 311.792547 -321.172983 
L 311.327537 -321.207786 
L 310.862526 -321.233892 
L 310.397516 -321.251297 
L 309.932505 -321.26 
L 309.467495 -321.26 
L 309.002484 -321.251297 
L 308.537474 -321.233892 
L 308.072463 -321.207786 
L 307.607453 -321.172983 
L 307.142442 -321.129485 
L 306.677432 -321.077297 
L 306.212422 -321.016424 
L 305.747411 -320.946872 
L 305.282401 -320.868648 
L 304.81739 -320.781759 
L 304.35238 -320.686214 
L 303.887369 -320.582023 
L 303.422359 -320.469195 
L 302.957348 -320.347741 
L 302.492338 -320.217674 
L 302.027327 -320.079006 
L 301.562317 -319.931751 
L 301.097306 -319.775923 
L 300.632296 -319.611538 
L 300.167285 -319.438611 
L 299.702275 -319.257159 
L 299.237265 -319.067201 
L 298.772254 -318.868754 
L 298.307244 -318.661838 
L 297.842233 -318.446474 
L 297.377223 -318.222682 
L 296.912212 -317.990483 
L 296.447202 -317.749902 
L 295.982191 -317.50096 
L 295.517181 -317.243683 
L 295.05217 -316.978095 
L 294.58716 -316.704222 
L 294.122149 -316.42209 
L 293.657139 -316.131728 
L 293.192128 -315.833162 
L 292.727118 -315.526423 
L 292.262108 -315.21154 
L 291.797097 -314.888542 
L 291.332087 -314.557462 
L 290.867076 -314.218332 
L 290.402066 -313.871183 
L 289.937055 -313.51605 
L 289.472045 -313.152967 
L 289.007034 -312.781968 
L 288.542024 -312.403089 
L 288.077013 -312.016367 
L 287.612003 -311.621839 
L 287.146992 -311.219542 
L 286.681982 -310.809515 
L 286.216972 -310.391798 
L 285.751961 -309.966429 
L 285.286951 -309.53345 
L 284.82194 -309.092902 
L 284.35693 -308.644827 
L 283.891919 -308.189267 
L 283.426909 -307.726266 
L 282.961898 -307.255867 
L 282.496888 -306.778115 
L 282.031877 -306.293055 
L 281.566867 -305.800734 
L 281.101856 -305.301197 
L 280.636846 -304.794491 
L 280.171835 -304.280664 
L 279.706825 -303.759765 
L 279.241815 -303.231842 
L 278.776804 -302.696945 
L 278.311794 -302.155123 
L 277.846783 -301.606428 
L 277.381773 -301.05091 
L 276.916762 -300.488621 
L 276.451752 -299.919613 
L 275.986741 -299.34394 
L 275.521731 -298.761654 
L 275.05672 -298.172809 
L 274.59171 -297.577459 
L 274.126699 -296.975661 
L 273.661689 -296.367467 
L 273.196678 -295.752936 
L 272.731668 -295.132122 
L 272.266658 -294.505084 
L 271.801647 -293.871877 
L 271.336637 -293.23256 
L 270.871626 -292.58719 
L 270.406616 -291.935827 
L 269.941605 -291.27853 
L 269.476595 -290.615357 
L 269.011584 -289.946369 
L 268.546574 -289.271626 
L 268.081563 -288.591189 
L 267.616553 -287.905118 
L 267.151542 -287.213475 
L 266.686532 -286.516322 
L 266.221522 -285.813721 
L 265.756511 -285.105734 
L 265.291501 -284.392424 
L 264.82649 -283.673854 
L 264.36148 -282.950088 
L 263.896469 -282.22119 
L 263.431459 -281.487223 
L 262.966448 -280.748252 
L 262.501438 -280.004341 
L 262.036427 -279.255555 
L 261.571417 -278.50196 
L 261.106406 -277.743621 
L 260.641396 -276.980604 
L 260.176385 -276.212974 
L 259.711375 -275.440797 
L 259.246365 -274.664141 
L 258.781354 -273.883071 
L 258.316344 -273.097654 
L 257.851333 -272.307957 
L 257.386323 -271.514047 
L 256.921312 -270.715991 
L 256.456302 -269.913858 
L 255.991291 -269.107714 
L 255.526281 -268.297627 
L 255.06127 -267.483665 
L 254.59626 -266.665896 
L 254.131249 -265.844388 
L 253.666239 -265.019209 
L 253.201229 -264.190428 
L 252.736218 -263.358112 
L 252.271208 -262.522331 
L 251.806197 -261.683153 
L 251.341187 -260.840646 
L 250.876176 -259.994879 
L 250.411166 -259.14592 
L 249.946155 -258.293839 
L 249.481145 -257.438703 
L 249.016134 -256.580583 
L 248.551124 -255.719545 
L 248.086113 -254.85566 
L 247.621103 -253.988995 
L 247.156092 -253.11962 
L 246.691082 -252.247603 
L 246.226072 -251.373012 
L 245.761061 -250.495916 
L 245.296051 -249.616384 
L 244.83104 -248.734484 
L 244.36603 -247.850285 
L 243.901019 -246.963853 
L 243.436009 -246.075259 
L 242.970998 -245.184569 
L 242.505988 -244.291852 
L 242.040977 -243.397175 
L 241.575967 -242.500607 
L 241.110956 -241.602214 
L 240.645946 -240.702064 
L 240.180935 -239.800224 
L 239.715925 -238.896762 
L 239.250915 -237.991744 
L 238.785904 -237.085238 
L 238.320894 -236.177308 
L 237.855883 -235.268023 
L 237.390873 -234.357448 
L 236.925862 -233.445649 
L 236.460852 -232.532692 
L 235.995841 -231.618643 
L 235.530831 -230.703566 
L 235.06582 -229.787526 
L 234.60081 -228.87059 
L 234.135799 -227.95282 
L 233.670789 -227.034282 
L 233.205779 -226.115039 
L 232.740768 -225.195155 
L 232.275758 -224.274694 
L 231.810747 -223.353719 
L 231.345737 -222.432293 
L 230.880726 -221.510478 
L 230.415716 -220.588336 
L 229.950705 -219.665931 
L 229.485695 -218.743322 
L 229.020684 -217.820572 
L 228.555674 -216.897742 
L 228.090663 -215.974892 
L 227.625653 -215.052083 
L 227.160642 -214.129375 
L 226.695632 -213.206827 
L 226.230622 -212.284498 
L 225.765611 -211.362448 
L 225.300601 -210.440734 
L 224.83559 -209.519416 
L 224.37058 -208.59855 
L 223.905569 -207.678195 
L 223.440559 -206.758407 
L 222.975548 -205.839243 
L 222.510538 -204.920759 
L 222.045527 -204.00301 
L 221.580517 -203.086053 
L 221.115506 -202.169941 
L 220.650496 -201.25473 
L 220.185485 -200.340474 
L 219.720475 -199.427226 
L 219.255465 -198.51504 
L 218.790454 -197.603967 
L 218.325444 -196.694062 
L 217.860433 -195.785375 
L 217.395423 -194.877958 
L 216.930412 -193.971862 
L 216.465402 -193.067138 
L 216.000391 -192.163835 
L 215.535381 -191.262003 
L 215.07037 -190.361691 
L 214.60536 -189.462949 
L 214.140349 -188.565823 
L 213.675339 -187.670363 
L 213.210329 -186.776614 
L 212.745318 -185.884624 
L 212.280308 -184.994439 
L 211.815297 -184.106105 
L 211.350287 -183.219667 
L 210.885276 -182.335169 
L 210.420266 -181.452657 
L 209.955255 -180.572173 
L 209.490245 -179.693762 
L 209.025234 -178.817465 
L 208.560224 -177.943325 
L 208.095213 -177.071385 
L 207.630203 -176.201684 
L 207.165192 -175.334264 
L 206.700182 -174.469164 
L 206.235172 -173.606426 
L 205.770161 -172.746087 
L 205.305151 -171.888186 
L 204.84014 -171.032762 
L 204.37513 -170.179853 
L 203.910119 -169.329494 
L 203.445109 -168.481723 
L 202.980098 -167.636576 
L 202.515088 -166.794089 
L 202.050077 -165.954296 
L 201.585067 -165.117231 
L 201.120056 -164.28293 
L 200.655046 -163.451424 
L 200.190035 -162.622747 
L 199.725025 -161.796932 
L 199.260015 -160.97401 
L 198.795004 -160.154012 
L 198.329994 -159.33697 
L 197.864983 -158.522913 
L 197.399973 -157.711871 
L 196.934962 -156.903874 
L 196.469952 -156.098949 
L 196.004941 -155.297126 
L 195.539931 -154.498431 
L 195.07492 -153.702893 
L 194.60991 -152.910536 
L 194.144899 -152.121388 
L 193.679889 -151.335474 
L 193.214879 -150.552819 
L 192.749868 -149.773447 
L 192.284858 -148.997382 
L 191.819847 -148.224648 
L 191.354837 -147.455268 
L 190.889826 -146.689264 
L 190.424816 -145.926657 
L 189.959805 -145.167469 
L 189.494795 -144.411722 
L 189.029784 -143.659435 
L 188.564774 -142.910628 
L 188.099763 -142.165321 
L 187.634753 -141.423531 
L 187.169742 -140.685279 
L 186.704732 -139.950581 
L 186.239722 -139.219454 
L 185.774711 -138.491916 
L 185.309701 -137.767983 
L 184.84469 -137.04767 
L 184.37968 -136.330994 
L 183.914669 -135.617968 
L 183.449659 -134.908607 
L 182.984648 -134.202925 
L 182.519638 -133.500936 
L 182.054627 -132.802651 
L 181.589617 -132.108085 
L 181.124606 -131.417248 
L 180.659596 -130.730152 
L 180.194585 -130.046808 
L 179.729575 -129.367226 
L 179.264565 -128.691418 
L 178.799554 -128.019391 
L 178.334544 -127.351157 
L 177.869533 -126.686722 
L 177.404523 -126.026096 
L 176.939512 -125.369286 
L 176.474502 -124.716299 
L 176.009491 -124.067143 
L 175.544481 -123.421825 
L 175.07947 -122.780349 
L 174.61446 -122.142721 
L 174.149449 -121.508948 
L 173.684439 -120.879033 
L 173.219429 -120.252981 
L 172.754418 -119.630796 
L 172.289408 -119.012481 
L 171.824397 -118.39804 
L 171.359387 -117.787475 
L 170.894376 -117.180788 
L 170.429366 -116.577981 
L 169.964355 -115.979056 
L 169.499345 -115.384014 
L 169.034334 -114.792856 
L 168.569324 -114.205581 
L 168.104313 -113.62219 
L 167.639303 -113.042682 
L 167.174292 -112.467057 
L 166.709282 -111.895313 
L 166.244272 -111.327449 
L 165.779261 -110.763463 
L 165.314251 -110.203352 
L 164.84924 -109.647113 
L 164.38423 -109.094745 
L 163.919219 -108.546243 
L 163.454209 -108.001604 
L 162.989198 -107.460824 
L 162.524188 -106.923898 
L 162.059177 -106.390822 
L 161.594167 -105.861591 
L 161.129156 -105.336199 
L 160.664146 -104.814641 
L 160.199135 -104.296911 
L 159.734125 -103.783002 
L 159.269115 -103.272908 
L 158.804104 -102.766622 
L 158.339094 -102.264136 
L 157.874083 -101.765444 
L 157.409073 -101.270537 
L 156.944062 -100.779408 
L 156.479052 -100.292048 
L 156.014041 -99.808448 
L 155.549031 -99.3286 
L 155.08402 -98.852494 
L 154.61901 -98.380121 
L 154.153999 -97.911471 
L 153.688989 -97.446534 
L 153.223979 -96.9853 
L 152.758968 -96.527759 
L 152.293958 -96.0739 
L 151.828947 -95.623711 
L 151.363937 -95.177182 
L 150.898926 -94.734302 
L 150.433916 -94.295058 
L 149.968905 -93.859438 
L 149.503895 -93.427431 
L 149.038884 -92.999025 
L 148.573874 -92.574206 
L 148.108863 -92.152962 
L 147.643853 -91.73528 
L 147.178842 -91.321147 
L 146.713832 -90.91055 
L 146.248822 -90.503474 
L 145.783811 -90.099907 
L 145.318801 -89.699834 
L 144.85379 -89.303242 
L 144.38878 -88.910115 
L 143.923769 -88.52044 
L 143.458759 -88.134202 
L 142.993748 -87.751386 
L 142.528738 -87.371977 
L 142.063727 -86.99596 
L 141.598717 -86.62332 
L 141.133706 -86.254041 
L 140.668696 -85.888109 
L 140.203686 -85.525506 
L 139.738675 -85.166218 
L 139.273665 -84.810228 
L 138.808654 -84.45752 
L 138.343644 -84.108078 
L 137.878633 -83.761886 
L 137.413623 -83.418927 
L 136.948612 -83.079185 
L 136.483602 -82.742642 
L 136.018591 -82.409283 
L 135.553581 -82.079089 
L 135.08857 -81.752045 
L 134.62356 -81.428132 
L 134.158549 -81.107335 
L 133.693539 -80.789634 
L 133.228529 -80.475014 
L 132.763518 -80.163456 
L 132.298508 -79.854943 
L 131.833497 -79.549457 
L 131.368487 -79.246981 
L 130.903476 -78.947497 
L 130.438466 -78.650986 
L 129.973455 -78.357431 
L 129.508445 -78.066814 
L 129.043434 -77.779117 
L 128.578424 -77.494322 
L 128.113413 -77.21241 
L 127.648403 -76.933363 
L 127.183392 -76.657163 
L 126.718382 -76.383792 
L 126.253372 -76.113231 
L 125.788361 -75.845463 
L 125.323351 -75.580467 
L 124.85834 -75.318227 
L 124.39333 -75.058723 
L 123.928319 -74.801937 
L 123.463309 -74.54785 
L 122.998298 -74.296445 
L 122.533288 -74.047701 
L 122.068277 -73.801601 
L 121.603267 -73.558126 
L 121.138256 -73.317257 
L 120.673246 -73.078976 
L 120.208236 -72.843264 
L 119.743225 -72.610103 
L 119.278215 -72.379473 
L 118.813204 -72.151356 
L 118.348194 -71.925733 
L 117.883183 -71.702586 
L 117.418173 -71.481897 
L 116.953162 -71.263645 
L 116.488152 -71.047814 
L 116.023141 -70.834384 
L 115.558131 -70.623336 
L 115.09312 -70.414652 
L 114.62811 -70.208314 
L 114.163099 -70.004303 
L 113.698089 -69.8026 
L 113.233079 -69.603188 
L 112.768068 -69.406047 
L 112.303058 -69.211159 
L 111.838047 -69.018506 
L 111.373037 -68.828069 
L 110.908026 -68.63983 
L 110.443016 -68.453772 
L 109.978005 -68.269875 
L 109.512995 -68.088121 
L 109.047984 -67.908493 
L 108.582974 -67.730972 
L 108.117963 -67.55554 
L 107.652953 -67.382179 
L 107.187942 -67.210872 
L 106.722932 -67.0416 
L 106.257922 -66.874345 
L 105.792911 -66.709091 
L 105.327901 -66.545818 
L 104.86289 -66.38451 
L 104.39788 -66.225149 
L 103.932869 -66.067717 
L 103.467859 -65.912196 
L 103.002848 -65.758571 
L 102.537838 -65.606822 
L 102.072827 -65.456933 
L 101.607817 -65.308886 
L 101.142806 -65.162665 
L 100.677796 -65.018253 
L 100.212786 -64.875631 
L 99.747775 -64.734784 
L 99.282765 -64.595695 
L 98.817754 -64.458347 
L 98.352744 -64.322723 
L 97.887733 -64.188806 
L 97.422723 -64.056581 
L 96.957712 -63.92603 
L 96.492702 -63.797137 
L 96.027691 -63.669886 
L 95.562681 -63.544261 
L 95.09767 -63.420245 
L 94.63266 -63.297823 
L 94.167649 -63.176978 
L 93.702639 -63.057696 
L 93.237629 -62.939959 
L 92.772618 -62.823752 
L 92.307608 -62.70906 
L 91.842597 -62.595867 
L 91.377587 -62.484158 
L 90.912576 -62.373917 
L 90.447566 -62.265129 
L 89.982555 -62.157779 
L 89.517545 -62.051852 
L 89.052534 -61.947332 
L 88.587524 -61.844206 
L 88.122513 -61.742458 
L 87.657503 -61.642074 
L 87.192492 -61.543038 
L 86.727482 -61.445337 
L 86.262472 -61.348956 
L 85.797461 -61.253881 
L 85.332451 -61.160097 
L 84.86744 -61.06759 
L 84.40243 -60.976347 
L 83.937419 -60.886354 
L 83.472409 -60.797596 
L 83.007398 -60.710059 
L 82.542388 -60.623731 
L 82.077377 -60.538598 
L 81.612367 -60.454646 
L 81.147356 -60.371862 
L 80.682346 -60.290233 
L 80.217336 -60.209745 
L 79.752325 -60.130386 
L 79.287315 -60.052142 
L 78.822304 -59.975001 
L 78.357294 -59.89895 
L 77.892283 -59.823976 
L 77.427273 -59.750068 
z
" style="stroke: #ff0000; stroke-opacity: 0.2"/>
    </defs>
    <g clip-path="url(#pdae633ab08)">
     <use xlink:href="#mddee20cb45" x="0" y="360" style="fill: #ff0000; fill-opacity: 0.2; stroke: #ff0000; stroke-opacity: 0.2"/>
    </g>
   </g>
   <g id="matplotlib.axis_1">
    <g id="xtick_1">
     <g id="line2d_1">
      <defs>
       <path id="ma5efaf4c37" d="M 0 0 
L 0 3.5 
" style="stroke: #000000; stroke-width: 0.8"/>
      </defs>
      <g>
       <use xlink:href="#ma5efaf4c37" x="77.427273" y="318.04" style="stroke: #000000; stroke-width: 0.8"/>
      </g>
     </g>
     <g id="text_1">
      <!-- −20 -->
      <g transform="translate(66.874929 332.638438) scale(0.1 -0.1)">
       <defs>
        <path id="DejaVuSans-2212" d="M 678 2272 
L 4684 2272 
L 4684 1741 
L 678 1741 
L 678 2272 
z
" transform="scale(0.015625)"/>
        <path id="DejaVuSans-32" d="M 1228 531 
L 3431 531 
L 3431 0 
L 469 0 
L 469 531 
Q 828 903 1448 1529 
Q 2069 2156 2228 2338 
Q 2531 2678 2651 2914 
Q 2772 3150 2772 3378 
Q 2772 3750 2511 3984 
Q 2250 4219 1831 4219 
Q 1534 4219 1204 4116 
Q 875 4013 500 3803 
L 500 4441 
Q 881 4594 1212 4672 
Q 1544 4750 1819 4750 
Q 2544 4750 2975 4387 
Q 3406 4025 3406 3419 
Q 3406 3131 3298 2873 
Q 3191 2616 2906 2266 
Q 2828 2175 2409 1742 
Q 1991 1309 1228 531 
z
" transform="scale(0.015625)"/>
        <path id="DejaVuSans-30" d="M 2034 4250 
Q 1547 4250 1301 3770 
Q 1056 3291 1056 2328 
Q 1056 1369 1301 889 
Q 1547 409 2034 409 
Q 2525 409 2770 889 
Q 3016 1369 3016 2328 
Q 3016 3291 2770 3770 
Q 2525 4250 2034 4250 
z
M 2034 4750 
Q 2819 4750 3233 4129 
Q 3647 3509 3647 2328 
Q 3647 1150 3233 529 
Q 2819 -91 2034 -91 
Q 1250 -91 836 529 
Q 422 1150 422 2328 
Q 422 3509 836 4129 
Q 1250 4750 2034 4750 
z
" transform="scale(0.015625)"/>
       </defs>
       <use xlink:href="#DejaVuSans-2212"/>
       <use xlink:href="#DejaVuSans-32" transform="translate(83.789062 0)"/>
       <use xlink:href="#DejaVuSans-30" transform="translate(147.412109 0)"/>
      </g>
     </g>
    </g>
    <g id="xtick_2">
     <g id="line2d_2">
      <g>
       <use xlink:href="#ma5efaf4c37" x="135.495455" y="318.04" style="stroke: #000000; stroke-width: 0.8"/>
      </g>
     </g>
     <g id="text_2">
      <!-- −15 -->
      <g transform="translate(124.943111 332.638438) scale(0.1 -0.1)">
       <defs>
        <path id="DejaVuSans-31" d="M 794 531 
L 1825 531 
L 1825 4091 
L 703 3866 
L 703 4441 
L 1819 4666 
L 2450 4666 
L 2450 531 
L 3481 531 
L 3481 0 
L 794 0 
L 794 531 
z
" transform="scale(0.015625)"/>
        <path id="DejaVuSans-35" d="M 691 4666 
L 3169 4666 
L 3169 4134 
L 1269 4134 
L 1269 2991 
Q 1406 3038 1543 3061 
Q 1681 3084 1819 3084 
Q 2600 3084 3056 2656 
Q 3513 2228 3513 1497 
Q 3513 744 3044 326 
Q 2575 -91 1722 -91 
Q 1428 -91 1123 -41 
Q 819 9 494 109 
L 494 744 
Q 775 591 1075 516 
Q 1375 441 1709 441 
Q 2250 441 2565 725 
Q 2881 1009 2881 1497 
Q 2881 1984 2565 2268 
Q 2250 2553 1709 2553 
Q 1456 2553 1204 2497 
Q 953 2441 691 2322 
L 691 4666 
z
" transform="scale(0.015625)"/>
       </defs>
       <use xlink:href="#DejaVuSans-2212"/>
       <use xlink:href="#DejaVuSans-31" transform="translate(83.789062 0)"/>
       <use xlink:href="#DejaVuSans-35" transform="translate(147.412109 0)"/>
      </g>
     </g>
    </g>
    <g id="xtick_3">
     <g id="line2d_3">
      <g>
       <use xlink:href="#ma5efaf4c37" x="193.563636" y="318.04" style="stroke: #000000; stroke-width: 0.8"/>
      </g>
     </g>
     <g id="text_3">
      <!-- −10 -->
      <g transform="translate(183.011293 332.638438) scale(0.1 -0.1)">
       <use xlink:href="#DejaVuSans-2212"/>
       <use xlink:href="#DejaVuSans-31" transform="translate(83.789062 0)"/>
       <use xlink:href="#DejaVuSans-30" transform="translate(147.412109 0)"/>
      </g>
     </g>
    </g>
    <g id="xtick_4">
     <g id="line2d_4">
      <g>
       <use xlink:href="#ma5efaf4c37" x="251.631818" y="318.04" style="stroke: #000000; stroke-width: 0.8"/>
      </g>
     </g>
     <g id="text_4">
      <!-- −5 -->
      <g transform="translate(244.260724 332.638438) scale(0.1 -0.1)">
       <use xlink:href="#DejaVuSans-2212"/>
       <use xlink:href="#DejaVuSans-35" transform="translate(83.789062 0)"/>
      </g>
     </g>
    </g>
    <g id="xtick_5">
     <g id="line2d_5">
      <g>
       <use xlink:href="#ma5efaf4c37" x="309.7" y="318.04" style="stroke: #000000; stroke-width: 0.8"/>
      </g>
     </g>
     <g id="text_5">
      <!-- 0 -->
      <g transform="translate(306.51875 332.638438) scale(0.1 -0.1)">
       <use xlink:href="#DejaVuSans-30"/>
      </g>
     </g>
    </g>
    <g id="xtick_6">
     <g id="line2d_6">
      <g>
       <use xlink:href="#ma5efaf4c37" x="367.768182" y="318.04" style="stroke: #000000; stroke-width: 0.8"/>
      </g>
     </g>
     <g id="text_6">
      <!-- 5 -->
      <g transform="translate(364.586932 332.638438) scale(0.1 -0.1)">
       <use xlink:href="#DejaVuSans-35"/>
      </g>
     </g>
    </g>
    <g id="xtick_7">
     <g id="line2d_7">
      <g>
       <use xlink:href="#ma5efaf4c37" x="425.836364" y="318.04" style="stroke: #000000; stroke-width: 0.8"/>
      </g>
     </g>
     <g id="text_7">
      <!-- 10 -->
      <g transform="translate(419.473864 332.638438) scale(0.1 -0.1)">
       <use xlink:href="#DejaVuSans-31"/>
       <use xlink:href="#DejaVuSans-30" transform="translate(63.623047 0)"/>
      </g>
     </g>
    </g>
    <g id="xtick_8">
     <g id="line2d_8">
      <g>
       <use xlink:href="#ma5efaf4c37" x="483.904545" y="318.04" style="stroke: #000000; stroke-width: 0.8"/>
      </g>
     </g>
     <g id="text_8">
      <!-- 15 -->
      <g transform="translate(477.542045 332.638438) scale(0.1 -0.1)">
       <use xlink:href="#DejaVuSans-31"/>
       <use xlink:href="#DejaVuSans-35" transform="translate(63.623047 0)"/>
      </g>
     </g>
    </g>
    <g id="xtick_9">
     <g id="line2d_9">
      <g>
       <use xlink:href="#ma5efaf4c37" x="541.972727" y="318.04" style="stroke: #000000; stroke-width: 0.8"/>
      </g>
     </g>
     <g id="text_9">
      <!-- 20 -->
      <g transform="translate(535.610227 332.638438) scale(0.1 -0.1)">
       <use xlink:href="#DejaVuSans-32"/>
       <use xlink:href="#DejaVuSans-30" transform="translate(63.623047 0)"/>
      </g>
     </g>
    </g>
    <g id="text_10">
     <!-- Predicted Score Differential (Home − Away) -->
     <g transform="translate(200.264844 346.316563) scale(0.1 -0.1)">
      <defs>
       <path id="DejaVuSans-50" d="M 1259 4147 
L 1259 2394 
L 2053 2394 
Q 2494 2394 2734 2622 
Q 2975 2850 2975 3272 
Q 2975 3691 2734 3919 
Q 2494 4147 2053 4147 
L 1259 4147 
z
M 628 4666 
L 2053 4666 
Q 2838 4666 3239 4311 
Q 3641 3956 3641 3272 
Q 3641 2581 3239 2228 
Q 2838 1875 2053 1875 
L 1259 1875 
L 1259 0 
L 628 0 
L 628 4666 
z
" transform="scale(0.015625)"/>
       <path id="DejaVuSans-72" d="M 2631 2963 
Q 2534 3019 2420 3045 
Q 2306 3072 2169 3072 
Q 1681 3072 1420 2755 
Q 1159 2438 1159 1844 
L 1159 0 
L 581 0 
L 581 3500 
L 1159 3500 
L 1159 2956 
Q 1341 3275 1631 3429 
Q 1922 3584 2338 3584 
Q 2397 3584 2469 3576 
Q 2541 3569 2628 3553 
L 2631 2963 
z
" transform="scale(0.015625)"/>
       <path id="DejaVuSans-65" d="M 3597 1894 
L 3597 1613 
L 953 1613 
Q 991 1019 1311 708 
Q 1631 397 2203 397 
Q 2534 397 2845 478 
Q 3156 559 3463 722 
L 3463 178 
Q 3153 47 2828 -22 
Q 2503 -91 2169 -91 
Q 1331 -91 842 396 
Q 353 884 353 1716 
Q 353 2575 817 3079 
Q 1281 3584 2069 3584 
Q 2775 3584 3186 3129 
Q 3597 2675 3597 1894 
z
M 3022 2063 
Q 3016 2534 2758 2815 
Q 2500 3097 2075 3097 
Q 1594 3097 1305 2825 
Q 1016 2553 972 2059 
L 3022 2063 
z
" transform="scale(0.015625)"/>
       <path id="DejaVuSans-64" d="M 2906 2969 
L 2906 4863 
L 3481 4863 
L 3481 0 
L 2906 0 
L 2906 525 
Q 2725 213 2448 61 
Q 2172 -91 1784 -91 
Q 1150 -91 751 415 
Q 353 922 353 1747 
Q 353 2572 751 3078 
Q 1150 3584 1784 3584 
Q 2172 3584 2448 3432 
Q 2725 3281 2906 2969 
z
M 947 1747 
Q 947 1113 1208 752 
Q 1469 391 1925 391 
Q 2381 391 2643 752 
Q 2906 1113 2906 1747 
Q 2906 2381 2643 2742 
Q 2381 3103 1925 3103 
Q 1469 3103 1208 2742 
Q 947 2381 947 1747 
z
" transform="scale(0.015625)"/>
       <path id="DejaVuSans-69" d="M 603 3500 
L 1178 3500 
L 1178 0 
L 603 0 
L 603 3500 
z
M 603 4863 
L 1178 4863 
L 1178 4134 
L 603 4134 
L 603 4863 
z
" transform="scale(0.015625)"/>
       <path id="DejaVuSans-63" d="M 3122 3366 
L 3122 2828 
Q 2878 2963 2633 3030 
Q 2388 3097 2138 3097 
Q 1578 3097 1268 2742 
Q 959 2388 959 1747 
Q 959 1106 1268 751 
Q 1578 397 2138 397 
Q 2388 397 2633 464 
Q 2878 531 3122 666 
L 3122 134 
Q 2881 22 2623 -34 
Q 2366 -91 2075 -91 
Q 1284 -91 818 406 
Q 353 903 353 1747 
Q 353 2603 823 3093 
Q 1294 3584 2113 3584 
Q 2378 3584 2631 3529 
Q 2884 3475 3122 3366 
z
" transform="scale(0.015625)"/>
       <path id="DejaVuSans-74" d="M 1172 4494 
L 1172 3500 
L 2356 3500 
L 2356 3053 
L 1172 3053 
L 1172 1153 
Q 1172 725 1289 603 
Q 1406 481 1766 481 
L 2356 481 
L 2356 0 
L 1766 0 
Q 1100 0 847 248 
Q 594 497 594 1153 
L 594 3053 
L 172 3053 
L 172 3500 
L 594 3500 
L 594 4494 
L 1172 4494 
z
" transform="scale(0.015625)"/>
       <path id="DejaVuSans-20" transform="scale(0.015625)"/>
       <path id="DejaVuSans-53" d="M 3425 4513 
L 3425 3897 
Q 3066 4069 2747 4153 
Q 2428 4238 2131 4238 
Q 1616 4238 1336 4038 
Q 1056 3838 1056 3469 
Q 1056 3159 1242 3001 
Q 1428 2844 1947 2747 
L 2328 2669 
Q 3034 2534 3370 2195 
Q 3706 1856 3706 1288 
Q 3706 609 3251 259 
Q 2797 -91 1919 -91 
Q 1588 -91 1214 -16 
Q 841 59 441 206 
L 441 856 
Q 825 641 1194 531 
Q 1563 422 1919 422 
Q 2459 422 2753 634 
Q 3047 847 3047 1241 
Q 3047 1584 2836 1778 
Q 2625 1972 2144 2069 
L 1759 2144 
Q 1053 2284 737 2584 
Q 422 2884 422 3419 
Q 422 4038 858 4394 
Q 1294 4750 2059 4750 
Q 2388 4750 2728 4690 
Q 3069 4631 3425 4513 
z
" transform="scale(0.015625)"/>
       <path id="DejaVuSans-6f" d="M 1959 3097 
Q 1497 3097 1228 2736 
Q 959 2375 959 1747 
Q 959 1119 1226 758 
Q 1494 397 1959 397 
Q 2419 397 2687 759 
Q 2956 1122 2956 1747 
Q 2956 2369 2687 2733 
Q 2419 3097 1959 3097 
z
M 1959 3584 
Q 2709 3584 3137 3096 
Q 3566 2609 3566 1747 
Q 3566 888 3137 398 
Q 2709 -91 1959 -91 
Q 1206 -91 779 398 
Q 353 888 353 1747 
Q 353 2609 779 3096 
Q 1206 3584 1959 3584 
z
" transform="scale(0.015625)"/>
       <path id="DejaVuSans-44" d="M 1259 4147 
L 1259 519 
L 2022 519 
Q 2988 519 3436 956 
Q 3884 1394 3884 2338 
Q 3884 3275 3436 3711 
Q 2988 4147 2022 4147 
L 1259 4147 
z
M 628 4666 
L 1925 4666 
Q 3281 4666 3915 4102 
Q 4550 3538 4550 2338 
Q 4550 1131 3912 565 
Q 3275 0 1925 0 
L 628 0 
L 628 4666 
z
" transform="scale(0.015625)"/>
       <path id="DejaVuSans-66" d="M 2375 4863 
L 2375 4384 
L 1825 4384 
Q 1516 4384 1395 4259 
Q 1275 4134 1275 3809 
L 1275 3500 
L 2222 3500 
L 2222 3053 
L 1275 3053 
L 1275 0 
L 697 0 
L 697 3053 
L 147 3053 
L 147 3500 
L 697 3500 
L 697 3744 
Q 697 4328 969 4595 
Q 1241 4863 1831 4863 
L 2375 4863 
z
" transform="scale(0.015625)"/>
       <path id="DejaVuSans-6e" d="M 3513 2113 
L 3513 0 
L 2938 0 
L 2938 2094 
Q 2938 2591 2744 2837 
Q 2550 3084 2163 3084 
Q 1697 3084 1428 2787 
Q 1159 2491 1159 1978 
L 1159 0 
L 581 0 
L 581 3500 
L 1159 3500 
L 1159 2956 
Q 1366 3272 1645 3428 
Q 1925 3584 2291 3584 
Q 2894 3584 3203 3211 
Q 3513 2838 3513 2113 
z
" transform="scale(0.015625)"/>
       <path id="DejaVuSans-61" d="M 2194 1759 
Q 1497 1759 1228 1600 
Q 959 1441 959 1056 
Q 959 750 1161 570 
Q 1363 391 1709 391 
Q 2188 391 2477 730 
Q 2766 1069 2766 1631 
L 2766 1759 
L 2194 1759 
z
M 3341 1997 
L 3341 0 
L 2766 0 
L 2766 531 
Q 2569 213 2275 61 
Q 1981 -91 1556 -91 
Q 1019 -91 701 211 
Q 384 513 384 1019 
Q 384 1609 779 1909 
Q 1175 2209 1959 2209 
L 2766 2209 
L 2766 2266 
Q 2766 2663 2505 2880 
Q 2244 3097 1772 3097 
Q 1472 3097 1187 3025 
Q 903 2953 641 2809 
L 641 3341 
Q 956 3463 1253 3523 
Q 1550 3584 1831 3584 
Q 2591 3584 2966 3190 
Q 3341 2797 3341 1997 
z
" transform="scale(0.015625)"/>
       <path id="DejaVuSans-6c" d="M 603 4863 
L 1178 4863 
L 1178 0 
L 603 0 
L 603 4863 
z
" transform="scale(0.015625)"/>
       <path id="DejaVuSans-28" d="M 1984 4856 
Q 1566 4138 1362 3434 
Q 1159 2731 1159 2009 
Q 1159 1288 1364 580 
Q 1569 -128 1984 -844 
L 1484 -844 
Q 1016 -109 783 600 
Q 550 1309 550 2009 
Q 550 2706 781 3412 
Q 1013 4119 1484 4856 
L 1984 4856 
z
" transform="scale(0.015625)"/>
       <path id="DejaVuSans-48" d="M 628 4666 
L 1259 4666 
L 1259 2753 
L 3553 2753 
L 3553 4666 
L 4184 4666 
L 4184 0 
L 3553 0 
L 3553 2222 
L 1259 2222 
L 1259 0 
L 628 0 
L 628 4666 
z
" transform="scale(0.015625)"/>
       <path id="DejaVuSans-6d" d="M 3328 2828 
Q 3544 3216 3844 3400 
Q 4144 3584 4550 3584 
Q 5097 3584 5394 3201 
Q 5691 2819 5691 2113 
L 5691 0 
L 5113 0 
L 5113 2094 
Q 5113 2597 4934 2840 
Q 4756 3084 4391 3084 
Q 3944 3084 3684 2787 
Q 3425 2491 3425 1978 
L 3425 0 
L 2847 0 
L 2847 2094 
Q 2847 2600 2669 2842 
Q 2491 3084 2119 3084 
Q 1678 3084 1418 2786 
Q 1159 2488 1159 1978 
L 1159 0 
L 581 0 
L 581 3500 
L 1159 3500 
L 1159 2956 
Q 1356 3278 1631 3431 
Q 1906 3584 2284 3584 
Q 2666 3584 2933 3390 
Q 3200 3197 3328 2828 
z
" transform="scale(0.015625)"/>
       <path id="DejaVuSans-41" d="M 2188 4044 
L 1331 1722 
L 3047 1722 
L 2188 4044 
z
M 1831 4666 
L 2547 4666 
L 4325 0 
L 3669 0 
L 3244 1197 
L 1141 1197 
L 716 0 
L 50 0 
L 1831 4666 
z
" transform="scale(0.015625)"/>
       <path id="DejaVuSans-77" d="M 269 3500 
L 844 3500 
L 1563 769 
L 2278 3500 
L 2956 3500 
L 3675 769 
L 4391 3500 
L 4966 3500 
L 4050 0 
L 3372 0 
L 2619 2869 
L 1863 0 
L 1184 0 
L 269 3500 
z
" transform="scale(0.015625)"/>
       <path id="DejaVuSans-79" d="M 2059 -325 
Q 1816 -950 1584 -1140 
Q 1353 -1331 966 -1331 
L 506 -1331 
L 506 -850 
L 844 -850 
Q 1081 -850 1212 -737 
Q 1344 -625 1503 -206 
L 1606 56 
L 191 3500 
L 800 3500 
L 1894 763 
L 2988 3500 
L 3597 3500 
L 2059 -325 
z
" transform="scale(0.015625)"/>
       <path id="DejaVuSans-29" d="M 513 4856 
L 1013 4856 
Q 1481 4119 1714 3412 
Q 1947 2706 1947 2009 
Q 1947 1309 1714 600 
Q 1481 -109 1013 -844 
L 513 -844 
Q 928 -128 1133 580 
Q 1338 1288 1338 2009 
Q 1338 2731 1133 3434 
Q 928 4138 513 4856 
z
" transform="scale(0.015625)"/>
      </defs>
      <use xlink:href="#DejaVuSans-50"/>
      <use xlink:href="#DejaVuSans-72" transform="translate(58.552734 0)"/>
      <use xlink:href="#DejaVuSans-65" transform="translate(97.416016 0)"/>
      <use xlink:href="#DejaVuSans-64" transform="translate(158.939453 0)"/>
      <use xlink:href="#DejaVuSans-69" transform="translate(222.416016 0)"/>
      <use xlink:href="#DejaVuSans-63" transform="translate(250.199219 0)"/>
      <use xlink:href="#DejaVuSans-74" transform="translate(305.179688 0)"/>
      <use xlink:href="#DejaVuSans-65" transform="translate(344.388672 0)"/>
      <use xlink:href="#DejaVuSans-64" transform="translate(405.912109 0)"/>
      <use xlink:href="#DejaVuSans-20" transform="translate(469.388672 0)"/>
      <use xlink:href="#DejaVuSans-53" transform="translate(501.175781 0)"/>
      <use xlink:href="#DejaVuSans-63" transform="translate(564.652344 0)"/>
      <use xlink:href="#DejaVuSans-6f" transform="translate(619.632812 0)"/>
      <use xlink:href="#DejaVuSans-72" transform="translate(680.814453 0)"/>
      <use xlink:href="#DejaVuSans-65" transform="translate(719.677734 0)"/>
      <use xlink:href="#DejaVuSans-20" transform="translate(781.201172 0)"/>
      <use xlink:href="#DejaVuSans-44" transform="translate(812.988281 0)"/>
      <use xlink:href="#DejaVuSans-69" transform="translate(889.990234 0)"/>
      <use xlink:href="#DejaVuSans-66" transform="translate(917.773438 0)"/>
      <use xlink:href="#DejaVuSans-66" transform="translate(952.978516 0)"/>
      <use xlink:href="#DejaVuSans-65" transform="translate(988.183594 0)"/>
      <use xlink:href="#DejaVuSans-72" transform="translate(1049.707031 0)"/>
      <use xlink:href="#DejaVuSans-65" transform="translate(1088.570312 0)"/>
      <use xlink:href="#DejaVuSans-6e" transform="translate(1150.09375 0)"/>
      <use xlink:href="#DejaVuSans-74" transform="translate(1213.472656 0)"/>
      <use xlink:href="#DejaVuSans-69" transform="translate(1252.681641 0)"/>
      <use xlink:href="#DejaVuSans-61" transform="translate(1280.464844 0)"/>
      <use xlink:href="#DejaVuSans-6c" transform="translate(1341.744141 0)"/>
      <use xlink:href="#DejaVuSans-20" transform="translate(1369.527344 0)"/>
      <use xlink:href="#DejaVuSans-28" transform="translate(1401.314453 0)"/>
      <use xlink:href="#DejaVuSans-48" transform="translate(1440.328125 0)"/>
      <use xlink:href="#DejaVuSans-6f" transform="translate(1515.523438 0)"/>
      <use xlink:href="#DejaVuSans-6d" transform="translate(1576.705078 0)"/>
      <use xlink:href="#DejaVuSans-65" transform="translate(1674.117188 0)"/>
      <use xlink:href="#DejaVuSans-20" transform="translate(1735.640625 0)"/>
      <use xlink:href="#DejaVuSans-2212" transform="translate(1767.427734 0)"/>
      <use xlink:href="#DejaVuSans-20" transform="translate(1851.216797 0)"/>
      <use xlink:href="#DejaVuSans-41" transform="translate(1883.003906 0)"/>
      <use xlink:href="#DejaVuSans-77" transform="translate(1947.412109 0)"/>
      <use xlink:href="#DejaVuSans-61" transform="translate(2029.199219 0)"/>
      <use xlink:href="#DejaVuSans-79" transform="translate(2090.478516 0)"/>
      <use xlink:href="#DejaVuSans-29" transform="translate(2149.658203 0)"/>
     </g>
    </g>
   </g>
   <g id="matplotlib.axis_2">
    <g id="ytick_1">
     <g id="line2d_10">
      <defs>
       <path id="m36e3a84b2e" d="M 0 0 
L -3.5 0 
" style="stroke: #000000; stroke-width: 0.8"/>
      </defs>
      <g>
       <use xlink:href="#m36e3a84b2e" x="54.2" y="304.74" style="stroke: #000000; stroke-width: 0.8"/>
      </g>
     </g>
     <g id="text_11">
      <!-- 0.00 -->
      <g transform="translate(24.934375 308.539219) scale(0.1 -0.1)">
       <defs>
        <path id="DejaVuSans-2e" d="M 684 794 
L 1344 794 
L 1344 0 
L 684 0 
L 684 794 
z
" transform="scale(0.015625)"/>
       </defs>
       <use xlink:href="#DejaVuSans-30"/>
       <use xlink:href="#DejaVuSans-2e" transform="translate(63.623047 0)"/>
       <use xlink:href="#DejaVuSans-30" transform="translate(95.410156 0)"/>
       <use xlink:href="#DejaVuSans-30" transform="translate(159.033203 0)"/>
      </g>
     </g>
    </g>
    <g id="ytick_2">
     <g id="line2d_11">
      <g>
       <use xlink:href="#m36e3a84b2e" x="54.2" y="258.066391" style="stroke: #000000; stroke-width: 0.8"/>
      </g>
     </g>
     <g id="text_12">
      <!-- 0.01 -->
      <g transform="translate(24.934375 261.865609) scale(0.1 -0.1)">
       <use xlink:href="#DejaVuSans-30"/>
       <use xlink:href="#DejaVuSans-2e" transform="translate(63.623047 0)"/>
       <use xlink:href="#DejaVuSans-30" transform="translate(95.410156 0)"/>
       <use xlink:href="#DejaVuSans-31" transform="translate(159.033203 0)"/>
      </g>
     </g>
    </g>
    <g id="ytick_3">
     <g id="line2d_12">
      <g>
       <use xlink:href="#m36e3a84b2e" x="54.2" y="211.392781" style="stroke: #000000; stroke-width: 0.8"/>
      </g>
     </g>
     <g id="text_13">
      <!-- 0.02 -->
      <g transform="translate(24.934375 215.192) scale(0.1 -0.1)">
       <use xlink:href="#DejaVuSans-30"/>
       <use xlink:href="#DejaVuSans-2e" transform="translate(63.623047 0)"/>
       <use xlink:href="#DejaVuSans-30" transform="translate(95.410156 0)"/>
       <use xlink:href="#DejaVuSans-32" transform="translate(159.033203 0)"/>
      </g>
     </g>
    </g>
    <g id="ytick_4">
     <g id="line2d_13">
      <g>
       <use xlink:href="#m36e3a84b2e" x="54.2" y="164.719172" style="stroke: #000000; stroke-width: 0.8"/>
      </g>
     </g>
     <g id="text_14">
      <!-- 0.03 -->
      <g transform="translate(24.934375 168.518391) scale(0.1 -0.1)">
       <defs>
        <path id="DejaVuSans-33" d="M 2597 2516 
Q 3050 2419 3304 2112 
Q 3559 1806 3559 1356 
Q 3559 666 3084 287 
Q 2609 -91 1734 -91 
Q 1441 -91 1130 -33 
Q 819 25 488 141 
L 488 750 
Q 750 597 1062 519 
Q 1375 441 1716 441 
Q 2309 441 2620 675 
Q 2931 909 2931 1356 
Q 2931 1769 2642 2001 
Q 2353 2234 1838 2234 
L 1294 2234 
L 1294 2753 
L 1863 2753 
Q 2328 2753 2575 2939 
Q 2822 3125 2822 3475 
Q 2822 3834 2567 4026 
Q 2313 4219 1838 4219 
Q 1578 4219 1281 4162 
Q 984 4106 628 3988 
L 628 4550 
Q 988 4650 1302 4700 
Q 1616 4750 1894 4750 
Q 2613 4750 3031 4423 
Q 3450 4097 3450 3541 
Q 3450 3153 3228 2886 
Q 3006 2619 2597 2516 
z
" transform="scale(0.015625)"/>
       </defs>
       <use xlink:href="#DejaVuSans-30"/>
       <use xlink:href="#DejaVuSans-2e" transform="translate(63.623047 0)"/>
       <use xlink:href="#DejaVuSans-30" transform="translate(95.410156 0)"/>
       <use xlink:href="#DejaVuSans-33" transform="translate(159.033203 0)"/>
      </g>
     </g>
    </g>
    <g id="ytick_5">
     <g id="line2d_14">
      <g>
       <use xlink:href="#m36e3a84b2e" x="54.2" y="118.045563" style="stroke: #000000; stroke-width: 0.8"/>
      </g>
     </g>
     <g id="text_15">
      <!-- 0.04 -->
      <g transform="translate(24.934375 121.844781) scale(0.1 -0.1)">
       <defs>
        <path id="DejaVuSans-34" d="M 2419 4116 
L 825 1625 
L 2419 1625 
L 2419 4116 
z
M 2253 4666 
L 3047 4666 
L 3047 1625 
L 3713 1625 
L 3713 1100 
L 3047 1100 
L 3047 0 
L 2419 0 
L 2419 1100 
L 313 1100 
L 313 1709 
L 2253 4666 
z
" transform="scale(0.015625)"/>
       </defs>
       <use xlink:href="#DejaVuSans-30"/>
       <use xlink:href="#DejaVuSans-2e" transform="translate(63.623047 0)"/>
       <use xlink:href="#DejaVuSans-30" transform="translate(95.410156 0)"/>
       <use xlink:href="#DejaVuSans-34" transform="translate(159.033203 0)"/>
      </g>
     </g>
    </g>
    <g id="ytick_6">
     <g id="line2d_15">
      <g>
       <use xlink:href="#m36e3a84b2e" x="54.2" y="71.371953" style="stroke: #000000; stroke-width: 0.8"/>
      </g>
     </g>
     <g id="text_16">
      <!-- 0.05 -->
      <g transform="translate(24.934375 75.171172) scale(0.1 -0.1)">
       <use xlink:href="#DejaVuSans-30"/>
       <use xlink:href="#DejaVuSans-2e" transform="translate(63.623047 0)"/>
       <use xlink:href="#DejaVuSans-30" transform="translate(95.410156 0)"/>
       <use xlink:href="#DejaVuSans-35" transform="translate(159.033203 0)"/>
      </g>
     </g>
    </g>
    <g id="text_17">
     <!-- Probability Density -->
     <g transform="translate(18.854688 218.766563) rotate(-90) scale(0.1 -0.1)">
      <defs>
       <path id="DejaVuSans-62" d="M 3116 1747 
Q 3116 2381 2855 2742 
Q 2594 3103 2138 3103 
Q 1681 3103 1420 2742 
Q 1159 2381 1159 1747 
Q 1159 1113 1420 752 
Q 1681 391 2138 391 
Q 2594 391 2855 752 
Q 3116 1113 3116 1747 
z
M 1159 2969 
Q 1341 3281 1617 3432 
Q 1894 3584 2278 3584 
Q 2916 3584 3314 3078 
Q 3713 2572 3713 1747 
Q 3713 922 3314 415 
Q 2916 -91 2278 -91 
Q 1894 -91 1617 61 
Q 1341 213 1159 525 
L 1159 0 
L 581 0 
L 581 4863 
L 1159 4863 
L 1159 2969 
z
" transform="scale(0.015625)"/>
       <path id="DejaVuSans-73" d="M 2834 3397 
L 2834 2853 
Q 2591 2978 2328 3040 
Q 2066 3103 1784 3103 
Q 1356 3103 1142 2972 
Q 928 2841 928 2578 
Q 928 2378 1081 2264 
Q 1234 2150 1697 2047 
L 1894 2003 
Q 2506 1872 2764 1633 
Q 3022 1394 3022 966 
Q 3022 478 2636 193 
Q 2250 -91 1575 -91 
Q 1294 -91 989 -36 
Q 684 19 347 128 
L 347 722 
Q 666 556 975 473 
Q 1284 391 1588 391 
Q 1994 391 2212 530 
Q 2431 669 2431 922 
Q 2431 1156 2273 1281 
Q 2116 1406 1581 1522 
L 1381 1569 
Q 847 1681 609 1914 
Q 372 2147 372 2553 
Q 372 3047 722 3315 
Q 1072 3584 1716 3584 
Q 2034 3584 2315 3537 
Q 2597 3491 2834 3397 
z
" transform="scale(0.015625)"/>
      </defs>
      <use xlink:href="#DejaVuSans-50"/>
      <use xlink:href="#DejaVuSans-72" transform="translate(58.552734 0)"/>
      <use xlink:href="#DejaVuSans-6f" transform="translate(97.416016 0)"/>
      <use xlink:href="#DejaVuSans-62" transform="translate(158.597656 0)"/>
      <use xlink:href="#DejaVuSans-61" transform="translate(222.074219 0)"/>
      <use xlink:href="#DejaVuSans-62" transform="translate(283.353516 0)"/>
      <use xlink:href="#DejaVuSans-69" transform="translate(346.830078 0)"/>
      <use xlink:href="#DejaVuSans-6c" transform="translate(374.613281 0)"/>
      <use xlink:href="#DejaVuSans-69" transform="translate(402.396484 0)"/>
      <use xlink:href="#DejaVuSans-74" transform="translate(430.179688 0)"/>
      <use xlink:href="#DejaVuSans-79" transform="translate(469.388672 0)"/>
      <use xlink:href="#DejaVuSans-20" transform="translate(528.568359 0)"/>
      <use xlink:href="#DejaVuSans-44" transform="translate(560.355469 0)"/>
      <use xlink:href="#DejaVuSans-65" transform="translate(637.357422 0)"/>
      <use xlink:href="#DejaVuSans-6e" transform="translate(698.880859 0)"/>
      <use xlink:href="#DejaVuSans-73" transform="translate(762.259766 0)"/>
      <use xlink:href="#DejaVuSans-69" transform="translate(814.359375 0)"/>
      <use xlink:href="#DejaVuSans-74" transform="translate(842.142578 0)"/>
      <use xlink:href="#DejaVuSans-79" transform="translate(881.351562 0)"/>
     </g>
    </g>
   </g>
   <g id="line2d_16">
    <path d="M 77.427273 300.249932 
L 83.937419 299.113646 
L 89.982555 297.842221 
L 95.562681 296.455739 
L 101.142806 294.837335 
L 106.257922 293.125655 
L 111.373037 291.171931 
L 116.023141 289.165616 
L 120.673246 286.921024 
L 125.323351 284.419533 
L 129.973455 281.642569 
L 134.158549 278.892665 
L 138.343644 275.891922 
L 142.528738 272.628023 
L 146.713832 269.08945 
L 150.898926 265.265698 
L 155.08402 261.147506 
L 159.269115 256.727092 
L 163.454209 251.998396 
L 167.639303 246.957318 
L 172.289408 240.987519 
L 176.939512 234.630714 
L 181.589617 227.891915 
L 186.239722 220.780546 
L 191.354837 212.544732 
L 196.469952 203.901051 
L 202.050077 194.045704 
L 208.095213 182.928615 
L 215.07037 169.638309 
L 224.37058 151.40145 
L 242.505988 115.708148 
L 249.016134 103.419417 
L 254.59626 93.334104 
L 259.711375 84.559203 
L 264.36148 77.049912 
L 268.546574 70.728374 
L 272.266658 65.494916 
L 275.986741 60.65606 
L 279.241815 56.768158 
L 282.496888 53.221885 
L 285.751961 50.033571 
L 288.542024 47.596911 
L 291.332087 45.442538 
L 294.122149 43.57791 
L 296.912212 42.009517 
L 299.237265 40.932799 
L 301.562317 40.068249 
L 303.887369 39.417977 
L 306.212422 38.983576 
L 308.537474 38.766108 
L 310.862526 38.766108 
L 313.187578 38.983576 
L 315.512631 39.417977 
L 317.837683 40.068249 
L 320.162735 40.932799 
L 322.487788 42.009517 
L 325.277851 43.57791 
L 328.067913 45.442538 
L 330.857976 47.596911 
L 333.648039 50.033571 
L 336.438102 52.744133 
L 339.693175 56.240235 
L 342.948248 60.080387 
L 346.203322 64.247064 
L 349.923405 69.384643 
L 353.643489 74.894266 
L 357.828583 81.49804 
L 362.478688 89.284009 
L 367.593803 98.316847 
L 373.173928 108.626988 
L 380.149085 122.008256 
L 390.379316 142.179428 
L 404.32963 169.638309 
L 411.769797 183.798316 
L 418.279944 195.71707 
L 423.860069 205.501569 
L 429.440195 214.832531 
L 434.55531 222.95233 
L 439.670425 230.632774 
L 444.32053 237.219651 
L 448.970634 243.422019 
L 453.620739 249.236537 
L 458.270844 254.663801 
L 462.455938 259.220592 
L 466.641032 263.472241 
L 470.826126 267.425794 
L 475.01122 271.089885 
L 479.196314 274.474494 
L 483.381409 277.590717 
L 487.566503 280.450543 
L 492.216608 283.342837 
L 496.866712 285.952299 
L 501.516817 288.297414 
L 506.166921 290.396812 
L 510.817026 292.269028 
L 515.932141 294.087804 
L 521.047256 295.677277 
L 526.627382 297.176248 
L 532.672518 298.554663 
L 538.717654 299.709767 
L 541.972727 300.249932 
L 541.972727 300.249932 
" clip-path="url(#pdae633ab08)" style="fill: none; stroke: #1f77b4; stroke-width: 2; stroke-linecap: square"/>
   </g>
   <g id="line2d_17">
    <path d="M 390.995455 318.04 
L 390.995455 25.44 
" clip-path="url(#pdae633ab08)" style="fill: none; stroke-dasharray: 5.55,2.4; stroke-dashoffset: 0; stroke: #ff0000; stroke-width: 1.5"/>
   </g>
   <g id="patch_3">
    <path d="M 54.2 318.04 
L 54.2 25.44 
" style="fill: none; stroke: #000000; stroke-width: 0.8; stroke-linejoin: miter; stroke-linecap: square"/>
   </g>
   <g id="patch_4">
    <path d="M 565.2 318.04 
L 565.2 25.44 
" style="fill: none; stroke: #000000; stroke-width: 0.8; stroke-linejoin: miter; stroke-linecap: square"/>
   </g>
   <g id="patch_5">
    <path d="M 54.2 318.04 
L 565.2 318.04 
" style="fill: none; stroke: #000000; stroke-width: 0.8; stroke-linejoin: miter; stroke-linecap: square"/>
   </g>
   <g id="patch_6">
    <path d="M 54.2 25.44 
L 565.2 25.44 
" style="fill: none; stroke: #000000; stroke-width: 0.8; stroke-linejoin: miter; stroke-linecap: square"/>
   </g>
   <g id="text_18">
    <!-- Example: Spread within Model’s Predicted Distribution -->
    <g transform="translate(146.572187 19.44) scale(0.12 -0.12)">
     <defs>
      <path id="DejaVuSans-45" d="M 628 4666 
L 3578 4666 
L 3578 4134 
L 1259 4134 
L 1259 2753 
L 3481 2753 
L 3481 2222 
L 1259 2222 
L 1259 531 
L 3634 531 
L 3634 0 
L 628 0 
L 628 4666 
z
" transform="scale(0.015625)"/>
      <path id="DejaVuSans-78" d="M 3513 3500 
L 2247 1797 
L 3578 0 
L 2900 0 
L 1881 1375 
L 863 0 
L 184 0 
L 1544 1831 
L 300 3500 
L 978 3500 
L 1906 2253 
L 2834 3500 
L 3513 3500 
z
" transform="scale(0.015625)"/>
      <path id="DejaVuSans-70" d="M 1159 525 
L 1159 -1331 
L 581 -1331 
L 581 3500 
L 1159 3500 
L 1159 2969 
Q 1341 3281 1617 3432 
Q 1894 3584 2278 3584 
Q 2916 3584 3314 3078 
Q 3713 2572 3713 1747 
Q 3713 922 3314 415 
Q 2916 -91 2278 -91 
Q 1894 -91 1617 61 
Q 1341 213 1159 525 
z
M 3116 1747 
Q 3116 2381 2855 2742 
Q 2594 3103 2138 3103 
Q 1681 3103 1420 2742 
Q 1159 2381 1159 1747 
Q 1159 1113 1420 752 
Q 1681 391 2138 391 
Q 2594 391 2855 752 
Q 3116 1113 3116 1747 
z
" transform="scale(0.015625)"/>
      <path id="DejaVuSans-3a" d="M 750 794 
L 1409 794 
L 1409 0 
L 750 0 
L 750 794 
z
M 750 3309 
L 1409 3309 
L 1409 2516 
L 750 2516 
L 750 3309 
z
" transform="scale(0.015625)"/>
      <path id="DejaVuSans-68" d="M 3513 2113 
L 3513 0 
L 2938 0 
L 2938 2094 
Q 2938 2591 2744 2837 
Q 2550 3084 2163 3084 
Q 1697 3084 1428 2787 
Q 1159 2491 1159 1978 
L 1159 0 
L 581 0 
L 581 4863 
L 1159 4863 
L 1159 2956 
Q 1366 3272 1645 3428 
Q 1925 3584 2291 3584 
Q 2894 3584 3203 3211 
Q 3513 2838 3513 2113 
z
" transform="scale(0.015625)"/>
      <path id="DejaVuSans-4d" d="M 628 4666 
L 1569 4666 
L 2759 1491 
L 3956 4666 
L 4897 4666 
L 4897 0 
L 4281 0 
L 4281 4097 
L 3078 897 
L 2444 897 
L 1241 4097 
L 1241 0 
L 628 0 
L 628 4666 
z
" transform="scale(0.015625)"/>
      <path id="DejaVuSans-2019" d="M 813 4666 
L 1472 4666 
L 1472 4191 
L 959 3194 
L 556 3194 
L 813 4191 
L 813 4666 
z
" transform="scale(0.015625)"/>
      <path id="DejaVuSans-75" d="M 544 1381 
L 544 3500 
L 1119 3500 
L 1119 1403 
Q 1119 906 1312 657 
Q 1506 409 1894 409 
Q 2359 409 2629 706 
Q 2900 1003 2900 1516 
L 2900 3500 
L 3475 3500 
L 3475 0 
L 2900 0 
L 2900 538 
Q 2691 219 2414 64 
Q 2138 -91 1772 -91 
Q 1169 -91 856 284 
Q 544 659 544 1381 
z
M 1991 3584 
L 1991 3584 
z
" transform="scale(0.015625)"/>
     </defs>
     <use xlink:href="#DejaVuSans-45"/>
     <use xlink:href="#DejaVuSans-78" transform="translate(63.183594 0)"/>
     <use xlink:href="#DejaVuSans-61" transform="translate(122.363281 0)"/>
     <use xlink:href="#DejaVuSans-6d" transform="translate(183.642578 0)"/>
     <use xlink:href="#DejaVuSans-70" transform="translate(281.054688 0)"/>
     <use xlink:href="#DejaVuSans-6c" transform="translate(344.53125 0)"/>
     <use xlink:href="#DejaVuSans-65" transform="translate(372.314453 0)"/>
     <use xlink:href="#DejaVuSans-3a" transform="translate(433.837891 0)"/>
     <use xlink:href="#DejaVuSans-20" transform="translate(467.529297 0)"/>
     <use xlink:href="#DejaVuSans-53" transform="translate(499.316406 0)"/>
     <use xlink:href="#DejaVuSans-70" transform="translate(562.792969 0)"/>
     <use xlink:href="#DejaVuSans-72" transform="translate(626.269531 0)"/>
     <use xlink:href="#DejaVuSans-65" transform="translate(665.132812 0)"/>
     <use xlink:href="#DejaVuSans-61" transform="translate(726.65625 0)"/>
     <use xlink:href="#DejaVuSans-64" transform="translate(787.935547 0)"/>
     <use xlink:href="#DejaVuSans-20" transform="translate(851.412109 0)"/>
     <use xlink:href="#DejaVuSans-77" transform="translate(883.199219 0)"/>
     <use xlink:href="#DejaVuSans-69" transform="translate(964.986328 0)"/>
     <use xlink:href="#DejaVuSans-74" transform="translate(992.769531 0)"/>
     <use xlink:href="#DejaVuSans-68" transform="translate(1031.978516 0)"/>
     <use xlink:href="#DejaVuSans-69" transform="translate(1095.357422 0)"/>
     <use xlink:href="#DejaVuSans-6e" transform="translate(1123.140625 0)"/>
     <use xlink:href="#DejaVuSans-20" transform="translate(1186.519531 0)"/>
     <use xlink:href="#DejaVuSans-4d" transform="translate(1218.306641 0)"/>
     <use xlink:href="#DejaVuSans-6f" transform="translate(1304.585938 0)"/>
     <use xlink:href="#DejaVuSans-64" transform="translate(1365.767578 0)"/>
     <use xlink:href="#DejaVuSans-65" transform="translate(1429.244141 0)"/>
     <use xlink:href="#DejaVuSans-6c" transform="translate(1490.767578 0)"/>
     <use xlink:href="#DejaVuSans-2019" transform="translate(1518.550781 0)"/>
     <use xlink:href="#DejaVuSans-73" transform="translate(1550.337891 0)"/>
     <use xlink:href="#DejaVuSans-20" transform="translate(1602.4375 0)"/>
     <use xlink:href="#DejaVuSans-50" transform="translate(1634.224609 0)"/>
     <use xlink:href="#DejaVuSans-72" transform="translate(1692.777344 0)"/>
     <use xlink:href="#DejaVuSans-65" transform="translate(1731.640625 0)"/>
     <use xlink:href="#DejaVuSans-64" transform="translate(1793.164062 0)"/>
     <use xlink:href="#DejaVuSans-69" transform="translate(1856.640625 0)"/>
     <use xlink:href="#DejaVuSans-63" transform="translate(1884.423828 0)"/>
     <use xlink:href="#DejaVuSans-74" transform="translate(1939.404297 0)"/>
     <use xlink:href="#DejaVuSans-65" transform="translate(1978.613281 0)"/>
     <use xlink:href="#DejaVuSans-64" transform="translate(2040.136719 0)"/>
     <use xlink:href="#DejaVuSans-20" transform="translate(2103.613281 0)"/>
     <use xlink:href="#DejaVuSans-44" transform="translate(2135.400391 0)"/>
     <use xlink:href="#DejaVuSans-69" transform="translate(2212.402344 0)"/>
     <use xlink:href="#DejaVuSans-73" transform="translate(2240.185547 0)"/>
     <use xlink:href="#DejaVuSans-74" transform="translate(2292.285156 0)"/>
     <use xlink:href="#DejaVuSans-72" transform="translate(2331.494141 0)"/>
     <use xlink:href="#DejaVuSans-69" transform="translate(2372.607422 0)"/>
     <use xlink:href="#DejaVuSans-62" transform="translate(2400.390625 0)"/>
     <use xlink:href="#DejaVuSans-75" transform="translate(2463.867188 0)"/>
     <use xlink:href="#DejaVuSans-74" transform="translate(2527.246094 0)"/>
     <use xlink:href="#DejaVuSans-69" transform="translate(2566.455078 0)"/>
     <use xlink:href="#DejaVuSans-6f" transform="translate(2594.238281 0)"/>
     <use xlink:href="#DejaVuSans-6e" transform="translate(2655.419922 0)"/>
    </g>
   </g>
   <g id="legend_1">
    <g id="patch_7">
     <path d="M 417.74375 62.79625 
L 558.2 62.79625 
Q 560.2 62.79625 560.2 60.79625 
L 560.2 32.44 
Q 560.2 30.44 558.2 30.44 
L 417.74375 30.44 
Q 415.74375 30.44 415.74375 32.44 
L 415.74375 60.79625 
Q 415.74375 62.79625 417.74375 62.79625 
z
" style="fill: #ffffff; opacity: 0.8; stroke: #cccccc; stroke-linejoin: miter"/>
    </g>
    <g id="line2d_18">
     <path d="M 419.74375 38.538437 
L 429.74375 38.538437 
L 439.74375 38.538437 
" style="fill: none; stroke: #1f77b4; stroke-width: 2; stroke-linecap: square"/>
    </g>
    <g id="text_19">
     <!-- Predicted Distribution -->
     <g transform="translate(447.74375 42.038437) scale(0.1 -0.1)">
      <use xlink:href="#DejaVuSans-50"/>
      <use xlink:href="#DejaVuSans-72" transform="translate(58.552734 0)"/>
      <use xlink:href="#DejaVuSans-65" transform="translate(97.416016 0)"/>
      <use xlink:href="#DejaVuSans-64" transform="translate(158.939453 0)"/>
      <use xlink:href="#DejaVuSans-69" transform="translate(222.416016 0)"/>
      <use xlink:href="#DejaVuSans-63" transform="translate(250.199219 0)"/>
      <use xlink:href="#DejaVuSans-74" transform="translate(305.179688 0)"/>
      <use xlink:href="#DejaVuSans-65" transform="translate(344.388672 0)"/>
      <use xlink:href="#DejaVuSans-64" transform="translate(405.912109 0)"/>
      <use xlink:href="#DejaVuSans-20" transform="translate(469.388672 0)"/>
      <use xlink:href="#DejaVuSans-44" transform="translate(501.175781 0)"/>
      <use xlink:href="#DejaVuSans-69" transform="translate(578.177734 0)"/>
      <use xlink:href="#DejaVuSans-73" transform="translate(605.960938 0)"/>
      <use xlink:href="#DejaVuSans-74" transform="translate(658.060547 0)"/>
      <use xlink:href="#DejaVuSans-72" transform="translate(697.269531 0)"/>
      <use xlink:href="#DejaVuSans-69" transform="translate(738.382812 0)"/>
      <use xlink:href="#DejaVuSans-62" transform="translate(766.166016 0)"/>
      <use xlink:href="#DejaVuSans-75" transform="translate(829.642578 0)"/>
      <use xlink:href="#DejaVuSans-74" transform="translate(893.021484 0)"/>
      <use xlink:href="#DejaVuSans-69" transform="translate(932.230469 0)"/>
      <use xlink:href="#DejaVuSans-6f" transform="translate(960.013672 0)"/>
      <use xlink:href="#DejaVuSans-6e" transform="translate(1021.195312 0)"/>
     </g>
    </g>
    <g id="line2d_19">
     <path d="M 419.74375 53.216563 
L 429.74375 53.216563 
L 439.74375 53.216563 
" style="fill: none; stroke-dasharray: 5.55,2.4; stroke-dashoffset: 0; stroke: #ff0000; stroke-width: 1.5"/>
    </g>
    <g id="text_20">
     <!-- Spread -->
     <g transform="translate(447.74375 56.716563) scale(0.1 -0.1)">
      <use xlink:href="#DejaVuSans-53"/>
      <use xlink:href="#DejaVuSans-70" transform="translate(63.476562 0)"/>
      <use xlink:href="#DejaVuSans-72" transform="translate(126.953125 0)"/>
      <use xlink:href="#DejaVuSans-65" transform="translate(165.816406 0)"/>
      <use xlink:href="#DejaVuSans-61" transform="translate(227.339844 0)"/>
      <use xlink:href="#DejaVuSans-64" transform="translate(288.619141 0)"/>
     </g>
    </g>
   </g>
  </g>
 </g>
 <defs>
  <clipPath id="pdae633ab08">
   <rect x="54.2" y="25.44" width="511" height="292.6"/>
  </clipPath>
 </defs>
</svg>
