<?xml version="1.0" encoding="utf-8" standalone="no"?>
<!DOCTYPE svg PUBLIC "-//W3C//DTD SVG 1.1//EN"
  "http://www.w3.org/Graphics/SVG/1.1/DTD/svg11.dtd">
<svg xmlns:xlink="http://www.w3.org/1999/xlink" width="864pt" height="360pt" viewBox="0 0 864 360" xmlns="http://www.w3.org/2000/svg" version="1.1">
 <metadata>
  <rdf:RDF xmlns:dc="http://purl.org/dc/elements/1.1/" xmlns:cc="http://creativecommons.org/ns#" xmlns:rdf="http://www.w3.org/1999/02/22-rdf-syntax-ns#">
   <cc:Work>
    <dc:type rdf:resource="http://purl.org/dc/dcmitype/StillImage"/>
    <dc:date>2025-12-22T21:19:22.249529</dc:date>
    <dc:format>image/svg+xml</dc:format>
    <dc:creator>
     <cc:Agent>
      <dc:title>Matplotlib v3.10.8, https://matplotlib.org/</dc:title>
     </cc:Agent>
    </dc:creator>
   </cc:Work>
  </rdf:RDF>
 </metadata>
 <defs>
  <style type="text/css">*{stroke-linejoin: round; stroke-linecap: butt}</style>
 </defs>
 <g id="figure_1">
  <g id="patch_1">
   <path d="M 0 360 
L 864 360 
L 864 0 
L 0 0 
z
" style="fill: #ffffff"/>
  </g>
  <g id="axes_1">
   <g id="patch_2">
    <path d="M 108 320.4 
L 412.363636 320.4 
L 412.363636 43.2 
L 108 43.2 
z
" style="fill: #ffffff"/>
   </g>
   <g id="matplotlib.axis_1">
    <g id="xtick_1">
     <g id="line2d_1">
      <path d="M 108 320.4 
L 108 43.2 
" clip-path="url(#pef6e050859)" style="fill: none; stroke: #b0b0b0; stroke-width: 0.8; stroke-linecap: square"/>
     </g>
     <g id="line2d_2">
      <defs>
       <path id="mde07bac09b" d="M 0 0 
L 0 3.5 
" style="stroke: #000000; stroke-width: 0.8"/>
      </defs>
      <g>
       <use xlink:href="#mde07bac09b" x="108" y="320.4" style="stroke: #000000; stroke-width: 0.8"/>
      </g>
     </g>
     <g id="text_1">
      <!-- 0.0 -->
      <g transform="translate(100.048438 334.998438) scale(0.1 -0.1)">
       <defs>
        <path id="DejaVuSans-30" d="M 2034 4250 
Q 1547 4250 1301 3770 
Q 1056 3291 1056 2328 
Q 1056 1369 1301 889 
Q 1547 409 2034 409 
Q 2525 409 2770 889 
Q 3016 1369 3016 2328 
Q 3016 3291 2770 3770 
Q 2525 4250 2034 4250 
z
M 2034 4750 
Q 2819 4750 3233 4129 
Q 3647 3509 3647 2328 
Q 3647 1150 3233 529 
Q 2819 -91 2034 -91 
Q 1250 -91 836 529 
Q 422 1150 422 2328 
Q 422 3509 836 4129 
Q 1250 4750 2034 4750 
z
" transform="scale(0.015625)"/>
        <path id="DejaVuSans-2e" d="M 684 794 
L 1344 794 
L 1344 0 
L 684 0 
L 684 794 
z
" transform="scale(0.015625)"/>
       </defs>
       <use xlink:href="#DejaVuSans-30"/>
       <use xlink:href="#DejaVuSans-2e" transform="translate(63.623047 0)"/>
       <use xlink:href="#DejaVuSans-30" transform="translate(95.410156 0)"/>
      </g>
     </g>
    </g>
    <g id="xtick_2">
     <g id="line2d_3">
      <path d="M 141.818182 320.4 
L 141.818182 43.2 
" clip-path="url(#pef6e050859)" style="fill: none; stroke: #b0b0b0; stroke-width: 0.8; stroke-linecap: square"/>
     </g>
     <g id="line2d_4">
      <g>
       <use xlink:href="#mde07bac09b" x="141.818182" y="320.4" style="stroke: #000000; stroke-width: 0.8"/>
      </g>
     </g>
     <g id="text_2">
      <!-- 0.1 -->
      <g transform="translate(133.866619 334.998438) scale(0.1 -0.1)">
       <defs>
        <path id="DejaVuSans-31" d="M 794 531 
L 1825 531 
L 1825 4091 
L 703 3866 
L 703 4441 
L 1819 4666 
L 2450 4666 
L 2450 531 
L 3481 531 
L 3481 0 
L 794 0 
L 794 531 
z
" transform="scale(0.015625)"/>
       </defs>
       <use xlink:href="#DejaVuSans-30"/>
       <use xlink:href="#DejaVuSans-2e" transform="translate(63.623047 0)"/>
       <use xlink:href="#DejaVuSans-31" transform="translate(95.410156 0)"/>
      </g>
     </g>
    </g>
    <g id="xtick_3">
     <g id="line2d_5">
      <path d="M 175.636364 320.4 
L 175.636364 43.2 
" clip-path="url(#pef6e050859)" style="fill: none; stroke: #b0b0b0; stroke-width: 0.8; stroke-linecap: square"/>
     </g>
     <g id="line2d_6">
      <g>
       <use xlink:href="#mde07bac09b" x="175.636364" y="320.4" style="stroke: #000000; stroke-width: 0.8"/>
      </g>
     </g>
     <g id="text_3">
      <!-- 0.2 -->
      <g transform="translate(167.684801 334.998438) scale(0.1 -0.1)">
       <defs>
        <path id="DejaVuSans-32" d="M 1228 531 
L 3431 531 
L 3431 0 
L 469 0 
L 469 531 
Q 828 903 1448 1529 
Q 2069 2156 2228 2338 
Q 2531 2678 2651 2914 
Q 2772 3150 2772 3378 
Q 2772 3750 2511 3984 
Q 2250 4219 1831 4219 
Q 1534 4219 1204 4116 
Q 875 4013 500 3803 
L 500 4441 
Q 881 4594 1212 4672 
Q 1544 4750 1819 4750 
Q 2544 4750 2975 4387 
Q 3406 4025 3406 3419 
Q 3406 3131 3298 2873 
Q 3191 2616 2906 2266 
Q 2828 2175 2409 1742 
Q 1991 1309 1228 531 
z
" transform="scale(0.015625)"/>
       </defs>
       <use xlink:href="#DejaVuSans-30"/>
       <use xlink:href="#DejaVuSans-2e" transform="translate(63.623047 0)"/>
       <use xlink:href="#DejaVuSans-32" transform="translate(95.410156 0)"/>
      </g>
     </g>
    </g>
    <g id="xtick_4">
     <g id="line2d_7">
      <path d="M 209.454545 320.4 
L 209.454545 43.2 
" clip-path="url(#pef6e050859)" style="fill: none; stroke: #b0b0b0; stroke-width: 0.8; stroke-linecap: square"/>
     </g>
     <g id="line2d_8">
      <g>
       <use xlink:href="#mde07bac09b" x="209.454545" y="320.4" style="stroke: #000000; stroke-width: 0.8"/>
      </g>
     </g>
     <g id="text_4">
      <!-- 0.3 -->
      <g transform="translate(201.502983 334.998438) scale(0.1 -0.1)">
       <defs>
        <path id="DejaVuSans-33" d="M 2597 2516 
Q 3050 2419 3304 2112 
Q 3559 1806 3559 1356 
Q 3559 666 3084 287 
Q 2609 -91 1734 -91 
Q 1441 -91 1130 -33 
Q 819 25 488 141 
L 488 750 
Q 750 597 1062 519 
Q 1375 441 1716 441 
Q 2309 441 2620 675 
Q 2931 909 2931 1356 
Q 2931 1769 2642 2001 
Q 2353 2234 1838 2234 
L 1294 2234 
L 1294 2753 
L 1863 2753 
Q 2328 2753 2575 2939 
Q 2822 3125 2822 3475 
Q 2822 3834 2567 4026 
Q 2313 4219 1838 4219 
Q 1578 4219 1281 4162 
Q 984 4106 628 3988 
L 628 4550 
Q 988 4650 1302 4700 
Q 1616 4750 1894 4750 
Q 2613 4750 3031 4423 
Q 3450 4097 3450 3541 
Q 3450 3153 3228 2886 
Q 3006 2619 2597 2516 
z
" transform="scale(0.015625)"/>
       </defs>
       <use xlink:href="#DejaVuSans-30"/>
       <use xlink:href="#DejaVuSans-2e" transform="translate(63.623047 0)"/>
       <use xlink:href="#DejaVuSans-33" transform="translate(95.410156 0)"/>
      </g>
     </g>
    </g>
    <g id="xtick_5">
     <g id="line2d_9">
      <path d="M 243.272727 320.4 
L 243.272727 43.2 
" clip-path="url(#pef6e050859)" style="fill: none; stroke: #b0b0b0; stroke-width: 0.8; stroke-linecap: square"/>
     </g>
     <g id="line2d_10">
      <g>
       <use xlink:href="#mde07bac09b" x="243.272727" y="320.4" style="stroke: #000000; stroke-width: 0.8"/>
      </g>
     </g>
     <g id="text_5">
      <!-- 0.4 -->
      <g transform="translate(235.321165 334.998438) scale(0.1 -0.1)">
       <defs>
        <path id="DejaVuSans-34" d="M 2419 4116 
L 825 1625 
L 2419 1625 
L 2419 4116 
z
M 2253 4666 
L 3047 4666 
L 3047 1625 
L 3713 1625 
L 3713 1100 
L 3047 1100 
L 3047 0 
L 2419 0 
L 2419 1100 
L 313 1100 
L 313 1709 
L 2253 4666 
z
" transform="scale(0.015625)"/>
       </defs>
       <use xlink:href="#DejaVuSans-30"/>
       <use xlink:href="#DejaVuSans-2e" transform="translate(63.623047 0)"/>
       <use xlink:href="#DejaVuSans-34" transform="translate(95.410156 0)"/>
      </g>
     </g>
    </g>
    <g id="xtick_6">
     <g id="line2d_11">
      <path d="M 277.090909 320.4 
L 277.090909 43.2 
" clip-path="url(#pef6e050859)" style="fill: none; stroke: #b0b0b0; stroke-width: 0.8; stroke-linecap: square"/>
     </g>
     <g id="line2d_12">
      <g>
       <use xlink:href="#mde07bac09b" x="277.090909" y="320.4" style="stroke: #000000; stroke-width: 0.8"/>
      </g>
     </g>
     <g id="text_6">
      <!-- 0.5 -->
      <g transform="translate(269.139347 334.998438) scale(0.1 -0.1)">
       <defs>
        <path id="DejaVuSans-35" d="M 691 4666 
L 3169 4666 
L 3169 4134 
L 1269 4134 
L 1269 2991 
Q 1406 3038 1543 3061 
Q 1681 3084 1819 3084 
Q 2600 3084 3056 2656 
Q 3513 2228 3513 1497 
Q 3513 744 3044 326 
Q 2575 -91 1722 -91 
Q 1428 -91 1123 -41 
Q 819 9 494 109 
L 494 744 
Q 775 591 1075 516 
Q 1375 441 1709 441 
Q 2250 441 2565 725 
Q 2881 1009 2881 1497 
Q 2881 1984 2565 2268 
Q 2250 2553 1709 2553 
Q 1456 2553 1204 2497 
Q 953 2441 691 2322 
L 691 4666 
z
" transform="scale(0.015625)"/>
       </defs>
       <use xlink:href="#DejaVuSans-30"/>
       <use xlink:href="#DejaVuSans-2e" transform="translate(63.623047 0)"/>
       <use xlink:href="#DejaVuSans-35" transform="translate(95.410156 0)"/>
      </g>
     </g>
    </g>
    <g id="xtick_7">
     <g id="line2d_13">
      <path d="M 310.909091 320.4 
L 310.909091 43.2 
" clip-path="url(#pef6e050859)" style="fill: none; stroke: #b0b0b0; stroke-width: 0.8; stroke-linecap: square"/>
     </g>
     <g id="line2d_14">
      <g>
       <use xlink:href="#mde07bac09b" x="310.909091" y="320.4" style="stroke: #000000; stroke-width: 0.8"/>
      </g>
     </g>
     <g id="text_7">
      <!-- 0.6 -->
      <g transform="translate(302.957528 334.998438) scale(0.1 -0.1)">
       <defs>
        <path id="DejaVuSans-36" d="M 2113 2584 
Q 1688 2584 1439 2293 
Q 1191 2003 1191 1497 
Q 1191 994 1439 701 
Q 1688 409 2113 409 
Q 2538 409 2786 701 
Q 3034 994 3034 1497 
Q 3034 2003 2786 2293 
Q 2538 2584 2113 2584 
z
M 3366 4563 
L 3366 3988 
Q 3128 4100 2886 4159 
Q 2644 4219 2406 4219 
Q 1781 4219 1451 3797 
Q 1122 3375 1075 2522 
Q 1259 2794 1537 2939 
Q 1816 3084 2150 3084 
Q 2853 3084 3261 2657 
Q 3669 2231 3669 1497 
Q 3669 778 3244 343 
Q 2819 -91 2113 -91 
Q 1303 -91 875 529 
Q 447 1150 447 2328 
Q 447 3434 972 4092 
Q 1497 4750 2381 4750 
Q 2619 4750 2861 4703 
Q 3103 4656 3366 4563 
z
" transform="scale(0.015625)"/>
       </defs>
       <use xlink:href="#DejaVuSans-30"/>
       <use xlink:href="#DejaVuSans-2e" transform="translate(63.623047 0)"/>
       <use xlink:href="#DejaVuSans-36" transform="translate(95.410156 0)"/>
      </g>
     </g>
    </g>
    <g id="xtick_8">
     <g id="line2d_15">
      <path d="M 344.727273 320.4 
L 344.727273 43.2 
" clip-path="url(#pef6e050859)" style="fill: none; stroke: #b0b0b0; stroke-width: 0.8; stroke-linecap: square"/>
     </g>
     <g id="line2d_16">
      <g>
       <use xlink:href="#mde07bac09b" x="344.727273" y="320.4" style="stroke: #000000; stroke-width: 0.8"/>
      </g>
     </g>
     <g id="text_8">
      <!-- 0.7 -->
      <g transform="translate(336.77571 334.998438) scale(0.1 -0.1)">
       <defs>
        <path id="DejaVuSans-37" d="M 525 4666 
L 3525 4666 
L 3525 4397 
L 1831 0 
L 1172 0 
L 2766 4134 
L 525 4134 
L 525 4666 
z
" transform="scale(0.015625)"/>
       </defs>
       <use xlink:href="#DejaVuSans-30"/>
       <use xlink:href="#DejaVuSans-2e" transform="translate(63.623047 0)"/>
       <use xlink:href="#DejaVuSans-37" transform="translate(95.410156 0)"/>
      </g>
     </g>
    </g>
    <g id="xtick_9">
     <g id="line2d_17">
      <path d="M 378.545455 320.4 
L 378.545455 43.2 
" clip-path="url(#pef6e050859)" style="fill: none; stroke: #b0b0b0; stroke-width: 0.8; stroke-linecap: square"/>
     </g>
     <g id="line2d_18">
      <g>
       <use xlink:href="#mde07bac09b" x="378.545455" y="320.4" style="stroke: #000000; stroke-width: 0.8"/>
      </g>
     </g>
     <g id="text_9">
      <!-- 0.8 -->
      <g transform="translate(370.593892 334.998438) scale(0.1 -0.1)">
       <defs>
        <path id="DejaVuSans-38" d="M 2034 2216 
Q 1584 2216 1326 1975 
Q 1069 1734 1069 1313 
Q 1069 891 1326 650 
Q 1584 409 2034 409 
Q 2484 409 2743 651 
Q 3003 894 3003 1313 
Q 3003 1734 2745 1975 
Q 2488 2216 2034 2216 
z
M 1403 2484 
Q 997 2584 770 2862 
Q 544 3141 544 3541 
Q 544 4100 942 4425 
Q 1341 4750 2034 4750 
Q 2731 4750 3128 4425 
Q 3525 4100 3525 3541 
Q 3525 3141 3298 2862 
Q 3072 2584 2669 2484 
Q 3125 2378 3379 2068 
Q 3634 1759 3634 1313 
Q 3634 634 3220 271 
Q 2806 -91 2034 -91 
Q 1263 -91 848 271 
Q 434 634 434 1313 
Q 434 1759 690 2068 
Q 947 2378 1403 2484 
z
M 1172 3481 
Q 1172 3119 1398 2916 
Q 1625 2713 2034 2713 
Q 2441 2713 2670 2916 
Q 2900 3119 2900 3481 
Q 2900 3844 2670 4047 
Q 2441 4250 2034 4250 
Q 1625 4250 1398 4047 
Q 1172 3844 1172 3481 
z
" transform="scale(0.015625)"/>
       </defs>
       <use xlink:href="#DejaVuSans-30"/>
       <use xlink:href="#DejaVuSans-2e" transform="translate(63.623047 0)"/>
       <use xlink:href="#DejaVuSans-38" transform="translate(95.410156 0)"/>
      </g>
     </g>
    </g>
    <g id="xtick_10">
     <g id="line2d_19">
      <path d="M 412.363636 320.4 
L 412.363636 43.2 
" clip-path="url(#pef6e050859)" style="fill: none; stroke: #b0b0b0; stroke-width: 0.8; stroke-linecap: square"/>
     </g>
     <g id="line2d_20">
      <g>
       <use xlink:href="#mde07bac09b" x="412.363636" y="320.4" style="stroke: #000000; stroke-width: 0.8"/>
      </g>
     </g>
     <g id="text_10">
      <!-- 0.9 -->
      <g transform="translate(404.412074 334.998438) scale(0.1 -0.1)">
       <defs>
        <path id="DejaVuSans-39" d="M 703 97 
L 703 672 
Q 941 559 1184 500 
Q 1428 441 1663 441 
Q 2288 441 2617 861 
Q 2947 1281 2994 2138 
Q 2813 1869 2534 1725 
Q 2256 1581 1919 1581 
Q 1219 1581 811 2004 
Q 403 2428 403 3163 
Q 403 3881 828 4315 
Q 1253 4750 1959 4750 
Q 2769 4750 3195 4129 
Q 3622 3509 3622 2328 
Q 3622 1225 3098 567 
Q 2575 -91 1691 -91 
Q 1453 -91 1209 -44 
Q 966 3 703 97 
z
M 1959 2075 
Q 2384 2075 2632 2365 
Q 2881 2656 2881 3163 
Q 2881 3666 2632 3958 
Q 2384 4250 1959 4250 
Q 1534 4250 1286 3958 
Q 1038 3666 1038 3163 
Q 1038 2656 1286 2365 
Q 1534 2075 1959 2075 
z
" transform="scale(0.015625)"/>
       </defs>
       <use xlink:href="#DejaVuSans-30"/>
       <use xlink:href="#DejaVuSans-2e" transform="translate(63.623047 0)"/>
       <use xlink:href="#DejaVuSans-39" transform="translate(95.410156 0)"/>
      </g>
     </g>
    </g>
    <g id="text_11">
     <!-- Confidence Threshold -->
     <g transform="translate(205.840412 348.676562) scale(0.1 -0.1)">
      <defs>
       <path id="DejaVuSans-43" d="M 4122 4306 
L 4122 3641 
Q 3803 3938 3442 4084 
Q 3081 4231 2675 4231 
Q 1875 4231 1450 3742 
Q 1025 3253 1025 2328 
Q 1025 1406 1450 917 
Q 1875 428 2675 428 
Q 3081 428 3442 575 
Q 3803 722 4122 1019 
L 4122 359 
Q 3791 134 3420 21 
Q 3050 -91 2638 -91 
Q 1578 -91 968 557 
Q 359 1206 359 2328 
Q 359 3453 968 4101 
Q 1578 4750 2638 4750 
Q 3056 4750 3426 4639 
Q 3797 4528 4122 4306 
z
" transform="scale(0.015625)"/>
       <path id="DejaVuSans-6f" d="M 1959 3097 
Q 1497 3097 1228 2736 
Q 959 2375 959 1747 
Q 959 1119 1226 758 
Q 1494 397 1959 397 
Q 2419 397 2687 759 
Q 2956 1122 2956 1747 
Q 2956 2369 2687 2733 
Q 2419 3097 1959 3097 
z
M 1959 3584 
Q 2709 3584 3137 3096 
Q 3566 2609 3566 1747 
Q 3566 888 3137 398 
Q 2709 -91 1959 -91 
Q 1206 -91 779 398 
Q 353 888 353 1747 
Q 353 2609 779 3096 
Q 1206 3584 1959 3584 
z
" transform="scale(0.015625)"/>
       <path id="DejaVuSans-6e" d="M 3513 2113 
L 3513 0 
L 2938 0 
L 2938 2094 
Q 2938 2591 2744 2837 
Q 2550 3084 2163 3084 
Q 1697 3084 1428 2787 
Q 1159 2491 1159 1978 
L 1159 0 
L 581 0 
L 581 3500 
L 1159 3500 
L 1159 2956 
Q 1366 3272 1645 3428 
Q 1925 3584 2291 3584 
Q 2894 3584 3203 3211 
Q 3513 2838 3513 2113 
z
" transform="scale(0.015625)"/>
       <path id="DejaVuSans-66" d="M 2375 4863 
L 2375 4384 
L 1825 4384 
Q 1516 4384 1395 4259 
Q 1275 4134 1275 3809 
L 1275 3500 
L 2222 3500 
L 2222 3053 
L 1275 3053 
L 1275 0 
L 697 0 
L 697 3053 
L 147 3053 
L 147 3500 
L 697 3500 
L 697 3744 
Q 697 4328 969 4595 
Q 1241 4863 1831 4863 
L 2375 4863 
z
" transform="scale(0.015625)"/>
       <path id="DejaVuSans-69" d="M 603 3500 
L 1178 3500 
L 1178 0 
L 603 0 
L 603 3500 
z
M 603 4863 
L 1178 4863 
L 1178 4134 
L 603 4134 
L 603 4863 
z
" transform="scale(0.015625)"/>
       <path id="DejaVuSans-64" d="M 2906 2969 
L 2906 4863 
L 3481 4863 
L 3481 0 
L 2906 0 
L 2906 525 
Q 2725 213 2448 61 
Q 2172 -91 1784 -91 
Q 1150 -91 751 415 
Q 353 922 353 1747 
Q 353 2572 751 3078 
Q 1150 3584 1784 3584 
Q 2172 3584 2448 3432 
Q 2725 3281 2906 2969 
z
M 947 1747 
Q 947 1113 1208 752 
Q 1469 391 1925 391 
Q 2381 391 2643 752 
Q 2906 1113 2906 1747 
Q 2906 2381 2643 2742 
Q 2381 3103 1925 3103 
Q 1469 3103 1208 2742 
Q 947 2381 947 1747 
z
" transform="scale(0.015625)"/>
       <path id="DejaVuSans-65" d="M 3597 1894 
L 3597 1613 
L 953 1613 
Q 991 1019 1311 708 
Q 1631 397 2203 397 
Q 2534 397 2845 478 
Q 3156 559 3463 722 
L 3463 178 
Q 3153 47 2828 -22 
Q 2503 -91 2169 -91 
Q 1331 -91 842 396 
Q 353 884 353 1716 
Q 353 2575 817 3079 
Q 1281 3584 2069 3584 
Q 2775 3584 3186 3129 
Q 3597 2675 3597 1894 
z
M 3022 2063 
Q 3016 2534 2758 2815 
Q 2500 3097 2075 3097 
Q 1594 3097 1305 2825 
Q 1016 2553 972 2059 
L 3022 2063 
z
" transform="scale(0.015625)"/>
       <path id="DejaVuSans-63" d="M 3122 3366 
L 3122 2828 
Q 2878 2963 2633 3030 
Q 2388 3097 2138 3097 
Q 1578 3097 1268 2742 
Q 959 2388 959 1747 
Q 959 1106 1268 751 
Q 1578 397 2138 397 
Q 2388 397 2633 464 
Q 2878 531 3122 666 
L 3122 134 
Q 2881 22 2623 -34 
Q 2366 -91 2075 -91 
Q 1284 -91 818 406 
Q 353 903 353 1747 
Q 353 2603 823 3093 
Q 1294 3584 2113 3584 
Q 2378 3584 2631 3529 
Q 2884 3475 3122 3366 
z
" transform="scale(0.015625)"/>
       <path id="DejaVuSans-20" transform="scale(0.015625)"/>
       <path id="DejaVuSans-54" d="M -19 4666 
L 3928 4666 
L 3928 4134 
L 2272 4134 
L 2272 0 
L 1638 0 
L 1638 4134 
L -19 4134 
L -19 4666 
z
" transform="scale(0.015625)"/>
       <path id="DejaVuSans-68" d="M 3513 2113 
L 3513 0 
L 2938 0 
L 2938 2094 
Q 2938 2591 2744 2837 
Q 2550 3084 2163 3084 
Q 1697 3084 1428 2787 
Q 1159 2491 1159 1978 
L 1159 0 
L 581 0 
L 581 4863 
L 1159 4863 
L 1159 2956 
Q 1366 3272 1645 3428 
Q 1925 3584 2291 3584 
Q 2894 3584 3203 3211 
Q 3513 2838 3513 2113 
z
" transform="scale(0.015625)"/>
       <path id="DejaVuSans-72" d="M 2631 2963 
Q 2534 3019 2420 3045 
Q 2306 3072 2169 3072 
Q 1681 3072 1420 2755 
Q 1159 2438 1159 1844 
L 1159 0 
L 581 0 
L 581 3500 
L 1159 3500 
L 1159 2956 
Q 1341 3275 1631 3429 
Q 1922 3584 2338 3584 
Q 2397 3584 2469 3576 
Q 2541 3569 2628 3553 
L 2631 2963 
z
" transform="scale(0.015625)"/>
       <path id="DejaVuSans-73" d="M 2834 3397 
L 2834 2853 
Q 2591 2978 2328 3040 
Q 2066 3103 1784 3103 
Q 1356 3103 1142 2972 
Q 928 2841 928 2578 
Q 928 2378 1081 2264 
Q 1234 2150 1697 2047 
L 1894 2003 
Q 2506 1872 2764 1633 
Q 3022 1394 3022 966 
Q 3022 478 2636 193 
Q 2250 -91 1575 -91 
Q 1294 -91 989 -36 
Q 684 19 347 128 
L 347 722 
Q 666 556 975 473 
Q 1284 391 1588 391 
Q 1994 391 2212 530 
Q 2431 669 2431 922 
Q 2431 1156 2273 1281 
Q 2116 1406 1581 1522 
L 1381 1569 
Q 847 1681 609 1914 
Q 372 2147 372 2553 
Q 372 3047 722 3315 
Q 1072 3584 1716 3584 
Q 2034 3584 2315 3537 
Q 2597 3491 2834 3397 
z
" transform="scale(0.015625)"/>
       <path id="DejaVuSans-6c" d="M 603 4863 
L 1178 4863 
L 1178 0 
L 603 0 
L 603 4863 
z
" transform="scale(0.015625)"/>
      </defs>
      <use xlink:href="#DejaVuSans-43"/>
      <use xlink:href="#DejaVuSans-6f" transform="translate(69.824219 0)"/>
      <use xlink:href="#DejaVuSans-6e" transform="translate(131.005859 0)"/>
      <use xlink:href="#DejaVuSans-66" transform="translate(194.384766 0)"/>
      <use xlink:href="#DejaVuSans-69" transform="translate(229.589844 0)"/>
      <use xlink:href="#DejaVuSans-64" transform="translate(257.373047 0)"/>
      <use xlink:href="#DejaVuSans-65" transform="translate(320.849609 0)"/>
      <use xlink:href="#DejaVuSans-6e" transform="translate(382.373047 0)"/>
      <use xlink:href="#DejaVuSans-63" transform="translate(445.751953 0)"/>
      <use xlink:href="#DejaVuSans-65" transform="translate(500.732422 0)"/>
      <use xlink:href="#DejaVuSans-20" transform="translate(562.255859 0)"/>
      <use xlink:href="#DejaVuSans-54" transform="translate(594.042969 0)"/>
      <use xlink:href="#DejaVuSans-68" transform="translate(655.126953 0)"/>
      <use xlink:href="#DejaVuSans-72" transform="translate(718.505859 0)"/>
      <use xlink:href="#DejaVuSans-65" transform="translate(757.369141 0)"/>
      <use xlink:href="#DejaVuSans-73" transform="translate(818.892578 0)"/>
      <use xlink:href="#DejaVuSans-68" transform="translate(870.992188 0)"/>
      <use xlink:href="#DejaVuSans-6f" transform="translate(934.371094 0)"/>
      <use xlink:href="#DejaVuSans-6c" transform="translate(995.552734 0)"/>
      <use xlink:href="#DejaVuSans-64" transform="translate(1023.335938 0)"/>
     </g>
    </g>
   </g>
   <g id="matplotlib.axis_2">
    <g id="ytick_1">
     <g id="line2d_21">
      <path d="M 108 320.4 
L 412.363636 320.4 
" clip-path="url(#pef6e050859)" style="fill: none; stroke: #b0b0b0; stroke-width: 0.8; stroke-linecap: square"/>
     </g>
     <g id="line2d_22">
      <defs>
       <path id="mb76adba754" d="M 0 0 
L -3.5 0 
" style="stroke: #000000; stroke-width: 0.8"/>
      </defs>
      <g>
       <use xlink:href="#mb76adba754" x="108" y="320.4" style="stroke: #000000; stroke-width: 0.8"/>
      </g>
     </g>
     <g id="text_12">
      <!-- 0.4 -->
      <g transform="translate(85.096875 324.199219) scale(0.1 -0.1)">
       <use xlink:href="#DejaVuSans-30"/>
       <use xlink:href="#DejaVuSans-2e" transform="translate(63.623047 0)"/>
       <use xlink:href="#DejaVuSans-34" transform="translate(95.410156 0)"/>
      </g>
     </g>
    </g>
    <g id="ytick_2">
     <g id="line2d_23">
      <path d="M 108 274.2 
L 412.363636 274.2 
" clip-path="url(#pef6e050859)" style="fill: none; stroke: #b0b0b0; stroke-width: 0.8; stroke-linecap: square"/>
     </g>
     <g id="line2d_24">
      <g>
       <use xlink:href="#mb76adba754" x="108" y="274.2" style="stroke: #000000; stroke-width: 0.8"/>
      </g>
     </g>
     <g id="text_13">
      <!-- 0.5 -->
      <g transform="translate(85.096875 277.999219) scale(0.1 -0.1)">
       <use xlink:href="#DejaVuSans-30"/>
       <use xlink:href="#DejaVuSans-2e" transform="translate(63.623047 0)"/>
       <use xlink:href="#DejaVuSans-35" transform="translate(95.410156 0)"/>
      </g>
     </g>
    </g>
    <g id="ytick_3">
     <g id="line2d_25">
      <path d="M 108 228 
L 412.363636 228 
" clip-path="url(#pef6e050859)" style="fill: none; stroke: #b0b0b0; stroke-width: 0.8; stroke-linecap: square"/>
     </g>
     <g id="line2d_26">
      <g>
       <use xlink:href="#mb76adba754" x="108" y="228" style="stroke: #000000; stroke-width: 0.8"/>
      </g>
     </g>
     <g id="text_14">
      <!-- 0.6 -->
      <g transform="translate(85.096875 231.799219) scale(0.1 -0.1)">
       <use xlink:href="#DejaVuSans-30"/>
       <use xlink:href="#DejaVuSans-2e" transform="translate(63.623047 0)"/>
       <use xlink:href="#DejaVuSans-36" transform="translate(95.410156 0)"/>
      </g>
     </g>
    </g>
    <g id="ytick_4">
     <g id="line2d_27">
      <path d="M 108 181.8 
L 412.363636 181.8 
" clip-path="url(#pef6e050859)" style="fill: none; stroke: #b0b0b0; stroke-width: 0.8; stroke-linecap: square"/>
     </g>
     <g id="line2d_28">
      <g>
       <use xlink:href="#mb76adba754" x="108" y="181.8" style="stroke: #000000; stroke-width: 0.8"/>
      </g>
     </g>
     <g id="text_15">
      <!-- 0.7 -->
      <g transform="translate(85.096875 185.599219) scale(0.1 -0.1)">
       <use xlink:href="#DejaVuSans-30"/>
       <use xlink:href="#DejaVuSans-2e" transform="translate(63.623047 0)"/>
       <use xlink:href="#DejaVuSans-37" transform="translate(95.410156 0)"/>
      </g>
     </g>
    </g>
    <g id="ytick_5">
     <g id="line2d_29">
      <path d="M 108 135.6 
L 412.363636 135.6 
" clip-path="url(#pef6e050859)" style="fill: none; stroke: #b0b0b0; stroke-width: 0.8; stroke-linecap: square"/>
     </g>
     <g id="line2d_30">
      <g>
       <use xlink:href="#mb76adba754" x="108" y="135.6" style="stroke: #000000; stroke-width: 0.8"/>
      </g>
     </g>
     <g id="text_16">
      <!-- 0.8 -->
      <g transform="translate(85.096875 139.399219) scale(0.1 -0.1)">
       <use xlink:href="#DejaVuSans-30"/>
       <use xlink:href="#DejaVuSans-2e" transform="translate(63.623047 0)"/>
       <use xlink:href="#DejaVuSans-38" transform="translate(95.410156 0)"/>
      </g>
     </g>
    </g>
    <g id="ytick_6">
     <g id="line2d_31">
      <path d="M 108 89.4 
L 412.363636 89.4 
" clip-path="url(#pef6e050859)" style="fill: none; stroke: #b0b0b0; stroke-width: 0.8; stroke-linecap: square"/>
     </g>
     <g id="line2d_32">
      <g>
       <use xlink:href="#mb76adba754" x="108" y="89.4" style="stroke: #000000; stroke-width: 0.8"/>
      </g>
     </g>
     <g id="text_17">
      <!-- 0.9 -->
      <g transform="translate(85.096875 93.199219) scale(0.1 -0.1)">
       <use xlink:href="#DejaVuSans-30"/>
       <use xlink:href="#DejaVuSans-2e" transform="translate(63.623047 0)"/>
       <use xlink:href="#DejaVuSans-39" transform="translate(95.410156 0)"/>
      </g>
     </g>
    </g>
    <g id="ytick_7">
     <g id="line2d_33">
      <path d="M 108 43.2 
L 412.363636 43.2 
" clip-path="url(#pef6e050859)" style="fill: none; stroke: #b0b0b0; stroke-width: 0.8; stroke-linecap: square"/>
     </g>
     <g id="line2d_34">
      <g>
       <use xlink:href="#mb76adba754" x="108" y="43.2" style="stroke: #000000; stroke-width: 0.8"/>
      </g>
     </g>
     <g id="text_18">
      <!-- 1.0 -->
      <g transform="translate(85.096875 46.999219) scale(0.1 -0.1)">
       <use xlink:href="#DejaVuSans-31"/>
       <use xlink:href="#DejaVuSans-2e" transform="translate(63.623047 0)"/>
       <use xlink:href="#DejaVuSans-30" transform="translate(95.410156 0)"/>
      </g>
     </g>
    </g>
    <g id="text_19">
     <!-- ATS Accuracy -->
     <g transform="translate(79.017187 215.478125) rotate(-90) scale(0.1 -0.1)">
      <defs>
       <path id="DejaVuSans-41" d="M 2188 4044 
L 1331 1722 
L 3047 1722 
L 2188 4044 
z
M 1831 4666 
L 2547 4666 
L 4325 0 
L 3669 0 
L 3244 1197 
L 1141 1197 
L 716 0 
L 50 0 
L 1831 4666 
z
" transform="scale(0.015625)"/>
       <path id="DejaVuSans-53" d="M 3425 4513 
L 3425 3897 
Q 3066 4069 2747 4153 
Q 2428 4238 2131 4238 
Q 1616 4238 1336 4038 
Q 1056 3838 1056 3469 
Q 1056 3159 1242 3001 
Q 1428 2844 1947 2747 
L 2328 2669 
Q 3034 2534 3370 2195 
Q 3706 1856 3706 1288 
Q 3706 609 3251 259 
Q 2797 -91 1919 -91 
Q 1588 -91 1214 -16 
Q 841 59 441 206 
L 441 856 
Q 825 641 1194 531 
Q 1563 422 1919 422 
Q 2459 422 2753 634 
Q 3047 847 3047 1241 
Q 3047 1584 2836 1778 
Q 2625 1972 2144 2069 
L 1759 2144 
Q 1053 2284 737 2584 
Q 422 2884 422 3419 
Q 422 4038 858 4394 
Q 1294 4750 2059 4750 
Q 2388 4750 2728 4690 
Q 3069 4631 3425 4513 
z
" transform="scale(0.015625)"/>
       <path id="DejaVuSans-75" d="M 544 1381 
L 544 3500 
L 1119 3500 
L 1119 1403 
Q 1119 906 1312 657 
Q 1506 409 1894 409 
Q 2359 409 2629 706 
Q 2900 1003 2900 1516 
L 2900 3500 
L 3475 3500 
L 3475 0 
L 2900 0 
L 2900 538 
Q 2691 219 2414 64 
Q 2138 -91 1772 -91 
Q 1169 -91 856 284 
Q 544 659 544 1381 
z
M 1991 3584 
L 1991 3584 
z
" transform="scale(0.015625)"/>
       <path id="DejaVuSans-61" d="M 2194 1759 
Q 1497 1759 1228 1600 
Q 959 1441 959 1056 
Q 959 750 1161 570 
Q 1363 391 1709 391 
Q 2188 391 2477 730 
Q 2766 1069 2766 1631 
L 2766 1759 
L 2194 1759 
z
M 3341 1997 
L 3341 0 
L 2766 0 
L 2766 531 
Q 2569 213 2275 61 
Q 1981 -91 1556 -91 
Q 1019 -91 701 211 
Q 384 513 384 1019 
Q 384 1609 779 1909 
Q 1175 2209 1959 2209 
L 2766 2209 
L 2766 2266 
Q 2766 2663 2505 2880 
Q 2244 3097 1772 3097 
Q 1472 3097 1187 3025 
Q 903 2953 641 2809 
L 641 3341 
Q 956 3463 1253 3523 
Q 1550 3584 1831 3584 
Q 2591 3584 2966 3190 
Q 3341 2797 3341 1997 
z
" transform="scale(0.015625)"/>
       <path id="DejaVuSans-79" d="M 2059 -325 
Q 1816 -950 1584 -1140 
Q 1353 -1331 966 -1331 
L 506 -1331 
L 506 -850 
L 844 -850 
Q 1081 -850 1212 -737 
Q 1344 -625 1503 -206 
L 1606 56 
L 191 3500 
L 800 3500 
L 1894 763 
L 2988 3500 
L 3597 3500 
L 2059 -325 
z
" transform="scale(0.015625)"/>
      </defs>
      <use xlink:href="#DejaVuSans-41"/>
      <use xlink:href="#DejaVuSans-54" transform="translate(60.658203 0)"/>
      <use xlink:href="#DejaVuSans-53" transform="translate(121.742188 0)"/>
      <use xlink:href="#DejaVuSans-20" transform="translate(185.21875 0)"/>
      <use xlink:href="#DejaVuSans-41" transform="translate(217.005859 0)"/>
      <use xlink:href="#DejaVuSans-63" transform="translate(283.664062 0)"/>
      <use xlink:href="#DejaVuSans-63" transform="translate(338.644531 0)"/>
      <use xlink:href="#DejaVuSans-75" transform="translate(393.625 0)"/>
      <use xlink:href="#DejaVuSans-72" transform="translate(457.003906 0)"/>
      <use xlink:href="#DejaVuSans-61" transform="translate(498.117188 0)"/>
      <use xlink:href="#DejaVuSans-63" transform="translate(559.396484 0)"/>
      <use xlink:href="#DejaVuSans-79" transform="translate(614.376953 0)"/>
     </g>
    </g>
   </g>
   <g id="line2d_35">
    <path d="M 108 270.303614 
L 111.381818 270.871002 
L 114.763636 270.871002 
L 118.145455 269.475383 
L 121.527273 269.475383 
L 124.909091 270.66789 
L 128.290909 270.66789 
L 131.672727 271.991235 
L 135.054545 271.991235 
L 138.436364 272.375052 
L 141.818182 272.375052 
L 145.2 271.380471 
L 148.581818 271.380471 
L 151.963636 271.790476 
L 155.345455 271.790476 
L 158.727273 272.114964 
L 162.109091 272.114964 
L 165.490909 271.202994 
L 168.872727 271.202994 
L 172.254545 269.675384 
L 175.636364 269.675384 
L 179.018182 268.755556 
L 182.4 268.755556 
L 185.781818 266.490822 
L 189.163636 266.490822 
L 192.545455 268.059494 
L 195.927273 268.059494 
L 199.309091 267.52908 
L 202.690909 267.52908 
L 206.072727 266.929614 
L 209.454545 266.929614 
L 212.836364 264.233898 
L 216.218182 264.233898 
L 219.6 264.503704 
L 222.981818 264.503704 
L 226.363636 262.042105 
L 229.745455 262.042105 
L 233.127273 261.551585 
L 236.509091 261.551585 
L 239.890909 264.324088 
L 243.272727 264.324088 
L 246.654545 263.2 
L 250.036364 263.2 
L 253.418182 260.243157 
L 256.8 260.243157 
L 260.181818 261.159677 
L 263.563636 261.159677 
L 266.945455 260.21034 
L 270.327273 260.21034 
L 273.709091 259.598703 
L 277.090909 259.598703 
L 280.472727 255.088489 
L 283.854545 255.088489 
L 287.236364 248.533333 
L 290.618182 248.533333 
L 294 240.469912 
L 297.381818 240.469912 
L 300.763636 234.45187 
L 304.145455 234.45187 
L 307.527273 228.522034 
L 310.909091 228.522034 
L 314.290909 225.156923 
L 317.672727 225.156923 
L 321.054545 225.102439 
L 324.436364 225.102439 
L 327.818182 225.423108 
L 331.2 225.423108 
L 334.581818 229.657399 
L 337.963636 229.657399 
L 341.345455 237.338298 
L 344.727273 226.776159 
L 348.109091 226.776159 
L 351.490909 226.776159 
L 354.872727 230.038235 
L 358.254545 230.038235 
L 361.636364 218.588889 
L 365.018182 218.588889 
L 368.4 210.738462 
L 371.781818 210.738462 
L 375.163636 207.331579 
L 378.545455 207.331579 
L 381.927273 191.7 
L 385.309091 177.95 
L 388.690909 177.95 
L 392.072727 177.95 
L 395.454545 177.329032 
L 398.836364 177.329032 
L 402.218182 181.8 
L 405.6 181.8 
L 408.981818 187.575 
L 412.363636 187.575 
L 415.745455 185.353846 
L 419.127273 185.353846 
L 422.509091 109.2 
L 425.890909 135.6 
L 429.272727 135.6 
L 432.654545 135.6 
L 436.036364 274.2 
L 439.418182 274.2 
L 442.8 43.2 
L 446.181818 43.2 
" clip-path="url(#pef6e050859)" style="fill: none; stroke: #008000; stroke-width: 1.5; stroke-linecap: square"/>
   </g>
   <g id="line2d_36">
    <path d="M 108 281.907946 
L 111.381818 281.151015 
L 114.763636 281.151015 
L 118.145455 280.621361 
L 121.527273 280.621361 
L 124.909091 281.982542 
L 128.290909 281.982542 
L 131.672727 282.95349 
L 135.054545 282.95349 
L 138.436364 283.876898 
L 141.818182 283.876898 
L 145.2 282.711053 
L 148.581818 282.711053 
L 151.963636 282.115239 
L 155.345455 282.115239 
L 158.727273 281.658689 
L 162.109091 281.658689 
L 165.490909 280.983972 
L 168.872727 280.983972 
L 172.254545 280.011321 
L 175.636364 280.011321 
L 179.018182 278.903908 
L 182.4 278.903908 
L 185.781818 275.685096 
L 189.163636 275.685096 
L 192.545455 273.186207 
L 195.927273 273.186207 
L 199.309091 274.814362 
L 202.690909 274.814362 
L 206.072727 275.688189 
L 209.454545 275.688189 
L 212.836364 274.732667 
L 216.218182 274.732667 
L 219.6 275.933945 
L 222.981818 275.933945 
L 226.363636 274.2 
L 229.745455 274.2 
L 233.127273 273.533013 
L 236.509091 273.533013 
L 239.890909 272.279002 
L 243.272727 272.279002 
L 246.654545 271.569021 
L 250.036364 271.569021 
L 253.418182 275.050307 
L 256.8 275.050307 
L 260.181818 274.2 
L 263.563636 274.2 
L 266.945455 275.226667 
L 270.327273 275.226667 
L 273.709091 274.2 
L 277.090909 274.2 
L 280.472727 274.617722 
L 283.854545 274.617722 
L 287.236364 272.827723 
L 290.618182 272.827723 
L 294 266.023009 
L 297.381818 266.023009 
L 300.763636 259.653401 
L 304.145455 259.653401 
L 307.527273 259.063248 
L 310.909091 259.063248 
L 314.290909 259.486624 
L 317.672727 259.486624 
L 321.054545 261.414022 
L 324.436364 261.414022 
L 327.818182 260.611765 
L 331.2 260.611765 
L 334.581818 258.651923 
L 337.963636 258.651923 
L 341.345455 268.088889 
L 344.727273 258.417391 
L 348.109091 258.417391 
L 351.490909 258.417391 
L 354.872727 265.383206 
L 358.254545 265.383206 
L 361.636364 261.6 
L 365.018182 261.6 
L 368.4 241.2 
L 371.781818 241.2 
L 375.163636 240.395122 
L 378.545455 240.395122 
L 381.927273 233.866667 
L 385.309091 239.795745 
L 388.690909 239.795745 
L 392.072727 239.795745 
L 395.454545 248.533333 
L 398.836364 248.533333 
L 402.218182 238.661538 
L 405.6 238.661538 
L 408.981818 232.2 
L 412.363636 232.2 
L 415.745455 260.611765 
L 419.127273 260.611765 
L 422.509091 327.507692 
L 424.987952 361 
M 433.071295 361 
L 436.036364 274.2 
L 439.418182 274.2 
" clip-path="url(#pef6e050859)" style="fill: none; stroke: #0000ff; stroke-width: 1.5; stroke-linecap: square"/>
   </g>
   <g id="patch_3">
    <path d="M 108 320.4 
L 108 43.2 
" style="fill: none; stroke: #000000; stroke-width: 0.8; stroke-linejoin: miter; stroke-linecap: square"/>
   </g>
   <g id="patch_4">
    <path d="M 412.363636 320.4 
L 412.363636 43.2 
" style="fill: none; stroke: #000000; stroke-width: 0.8; stroke-linejoin: miter; stroke-linecap: square"/>
   </g>
   <g id="patch_5">
    <path d="M 108 320.4 
L 412.363636 320.4 
" style="fill: none; stroke: #000000; stroke-width: 0.8; stroke-linejoin: miter; stroke-linecap: square"/>
   </g>
   <g id="patch_6">
    <path d="M 108 43.2 
L 412.363636 43.2 
" style="fill: none; stroke: #000000; stroke-width: 0.8; stroke-linejoin: miter; stroke-linecap: square"/>
   </g>
   <g id="text_20">
    <!-- ATS Accuracy vs Confidence Threshold -->
    <g transform="translate(144.067756 37.2) scale(0.12 -0.12)">
     <defs>
      <path id="DejaVuSans-76" d="M 191 3500 
L 800 3500 
L 1894 563 
L 2988 3500 
L 3597 3500 
L 2284 0 
L 1503 0 
L 191 3500 
z
" transform="scale(0.015625)"/>
     </defs>
     <use xlink:href="#DejaVuSans-41"/>
     <use xlink:href="#DejaVuSans-54" transform="translate(60.658203 0)"/>
     <use xlink:href="#DejaVuSans-53" transform="translate(121.742188 0)"/>
     <use xlink:href="#DejaVuSans-20" transform="translate(185.21875 0)"/>
     <use xlink:href="#DejaVuSans-41" transform="translate(217.005859 0)"/>
     <use xlink:href="#DejaVuSans-63" transform="translate(283.664062 0)"/>
     <use xlink:href="#DejaVuSans-63" transform="translate(338.644531 0)"/>
     <use xlink:href="#DejaVuSans-75" transform="translate(393.625 0)"/>
     <use xlink:href="#DejaVuSans-72" transform="translate(457.003906 0)"/>
     <use xlink:href="#DejaVuSans-61" transform="translate(498.117188 0)"/>
     <use xlink:href="#DejaVuSans-63" transform="translate(559.396484 0)"/>
     <use xlink:href="#DejaVuSans-79" transform="translate(614.376953 0)"/>
     <use xlink:href="#DejaVuSans-20" transform="translate(673.556641 0)"/>
     <use xlink:href="#DejaVuSans-76" transform="translate(705.34375 0)"/>
     <use xlink:href="#DejaVuSans-73" transform="translate(764.523438 0)"/>
     <use xlink:href="#DejaVuSans-20" transform="translate(816.623047 0)"/>
     <use xlink:href="#DejaVuSans-43" transform="translate(848.410156 0)"/>
     <use xlink:href="#DejaVuSans-6f" transform="translate(918.234375 0)"/>
     <use xlink:href="#DejaVuSans-6e" transform="translate(979.416016 0)"/>
     <use xlink:href="#DejaVuSans-66" transform="translate(1042.794922 0)"/>
     <use xlink:href="#DejaVuSans-69" transform="translate(1078 0)"/>
     <use xlink:href="#DejaVuSans-64" transform="translate(1105.783203 0)"/>
     <use xlink:href="#DejaVuSans-65" transform="translate(1169.259766 0)"/>
     <use xlink:href="#DejaVuSans-6e" transform="translate(1230.783203 0)"/>
     <use xlink:href="#DejaVuSans-63" transform="translate(1294.162109 0)"/>
     <use xlink:href="#DejaVuSans-65" transform="translate(1349.142578 0)"/>
     <use xlink:href="#DejaVuSans-20" transform="translate(1410.666016 0)"/>
     <use xlink:href="#DejaVuSans-54" transform="translate(1442.453125 0)"/>
     <use xlink:href="#DejaVuSans-68" transform="translate(1503.537109 0)"/>
     <use xlink:href="#DejaVuSans-72" transform="translate(1566.916016 0)"/>
     <use xlink:href="#DejaVuSans-65" transform="translate(1605.779297 0)"/>
     <use xlink:href="#DejaVuSans-73" transform="translate(1667.302734 0)"/>
     <use xlink:href="#DejaVuSans-68" transform="translate(1719.402344 0)"/>
     <use xlink:href="#DejaVuSans-6f" transform="translate(1782.78125 0)"/>
     <use xlink:href="#DejaVuSans-6c" transform="translate(1843.962891 0)"/>
     <use xlink:href="#DejaVuSans-64" transform="translate(1871.746094 0)"/>
    </g>
   </g>
   <g id="legend_1">
    <g id="patch_7">
     <path d="M 322.102699 80.55625 
L 405.363636 80.55625 
Q 407.363636 80.55625 407.363636 78.55625 
L 407.363636 50.2 
Q 407.363636 48.2 405.363636 48.2 
L 322.102699 48.2 
Q 320.102699 48.2 320.102699 50.2 
L 320.102699 78.55625 
Q 320.102699 80.55625 322.102699 80.55625 
z
" style="fill: #ffffff; opacity: 0.8; stroke: #cccccc; stroke-linejoin: miter"/>
    </g>
    <g id="line2d_37">
     <path d="M 324.102699 56.298437 
L 334.102699 56.298437 
L 344.102699 56.298437 
" style="fill: none; stroke: #008000; stroke-width: 1.5; stroke-linecap: square"/>
    </g>
    <g id="text_21">
     <!-- Open Line -->
     <g transform="translate(352.102699 59.798437) scale(0.1 -0.1)">
      <defs>
       <path id="DejaVuSans-4f" d="M 2522 4238 
Q 1834 4238 1429 3725 
Q 1025 3213 1025 2328 
Q 1025 1447 1429 934 
Q 1834 422 2522 422 
Q 3209 422 3611 934 
Q 4013 1447 4013 2328 
Q 4013 3213 3611 3725 
Q 3209 4238 2522 4238 
z
M 2522 4750 
Q 3503 4750 4090 4092 
Q 4678 3434 4678 2328 
Q 4678 1225 4090 567 
Q 3503 -91 2522 -91 
Q 1538 -91 948 565 
Q 359 1222 359 2328 
Q 359 3434 948 4092 
Q 1538 4750 2522 4750 
z
" transform="scale(0.015625)"/>
       <path id="DejaVuSans-70" d="M 1159 525 
L 1159 -1331 
L 581 -1331 
L 581 3500 
L 1159 3500 
L 1159 2969 
Q 1341 3281 1617 3432 
Q 1894 3584 2278 3584 
Q 2916 3584 3314 3078 
Q 3713 2572 3713 1747 
Q 3713 922 3314 415 
Q 2916 -91 2278 -91 
Q 1894 -91 1617 61 
Q 1341 213 1159 525 
z
M 3116 1747 
Q 3116 2381 2855 2742 
Q 2594 3103 2138 3103 
Q 1681 3103 1420 2742 
Q 1159 2381 1159 1747 
Q 1159 1113 1420 752 
Q 1681 391 2138 391 
Q 2594 391 2855 752 
Q 3116 1113 3116 1747 
z
" transform="scale(0.015625)"/>
       <path id="DejaVuSans-4c" d="M 628 4666 
L 1259 4666 
L 1259 531 
L 3531 531 
L 3531 0 
L 628 0 
L 628 4666 
z
" transform="scale(0.015625)"/>
      </defs>
      <use xlink:href="#DejaVuSans-4f"/>
      <use xlink:href="#DejaVuSans-70" transform="translate(78.710938 0)"/>
      <use xlink:href="#DejaVuSans-65" transform="translate(142.1875 0)"/>
      <use xlink:href="#DejaVuSans-6e" transform="translate(203.710938 0)"/>
      <use xlink:href="#DejaVuSans-20" transform="translate(267.089844 0)"/>
      <use xlink:href="#DejaVuSans-4c" transform="translate(298.876953 0)"/>
      <use xlink:href="#DejaVuSans-69" transform="translate(354.589844 0)"/>
      <use xlink:href="#DejaVuSans-6e" transform="translate(382.373047 0)"/>
      <use xlink:href="#DejaVuSans-65" transform="translate(445.751953 0)"/>
     </g>
    </g>
    <g id="line2d_38">
     <path d="M 324.102699 70.976562 
L 334.102699 70.976562 
L 344.102699 70.976562 
" style="fill: none; stroke: #0000ff; stroke-width: 1.5; stroke-linecap: square"/>
    </g>
    <g id="text_22">
     <!-- Close Line -->
     <g transform="translate(352.102699 74.476562) scale(0.1 -0.1)">
      <use xlink:href="#DejaVuSans-43"/>
      <use xlink:href="#DejaVuSans-6c" transform="translate(69.824219 0)"/>
      <use xlink:href="#DejaVuSans-6f" transform="translate(97.607422 0)"/>
      <use xlink:href="#DejaVuSans-73" transform="translate(158.789062 0)"/>
      <use xlink:href="#DejaVuSans-65" transform="translate(210.888672 0)"/>
      <use xlink:href="#DejaVuSans-20" transform="translate(272.412109 0)"/>
      <use xlink:href="#DejaVuSans-4c" transform="translate(304.199219 0)"/>
      <use xlink:href="#DejaVuSans-69" transform="translate(359.912109 0)"/>
      <use xlink:href="#DejaVuSans-6e" transform="translate(387.695312 0)"/>
      <use xlink:href="#DejaVuSans-65" transform="translate(451.074219 0)"/>
     </g>
    </g>
   </g>
  </g>
  <g id="axes_2">
   <g id="patch_8">
    <path d="M 473.236364 320.4 
L 777.6 320.4 
L 777.6 43.2 
L 473.236364 43.2 
z
" style="fill: #ffffff"/>
   </g>
   <g id="matplotlib.axis_3">
    <g id="xtick_11">
     <g id="line2d_39">
      <path d="M 473.236364 320.4 
L 473.236364 43.2 
" clip-path="url(#paa115610ec)" style="fill: none; stroke: #b0b0b0; stroke-width: 0.8; stroke-linecap: square"/>
     </g>
     <g id="line2d_40">
      <g>
       <use xlink:href="#mde07bac09b" x="473.236364" y="320.4" style="stroke: #000000; stroke-width: 0.8"/>
      </g>
     </g>
     <g id="text_23">
      <!-- 0.0 -->
      <g transform="translate(465.284801 334.998438) scale(0.1 -0.1)">
       <use xlink:href="#DejaVuSans-30"/>
       <use xlink:href="#DejaVuSans-2e" transform="translate(63.623047 0)"/>
       <use xlink:href="#DejaVuSans-30" transform="translate(95.410156 0)"/>
      </g>
     </g>
    </g>
    <g id="xtick_12">
     <g id="line2d_41">
      <path d="M 507.054545 320.4 
L 507.054545 43.2 
" clip-path="url(#paa115610ec)" style="fill: none; stroke: #b0b0b0; stroke-width: 0.8; stroke-linecap: square"/>
     </g>
     <g id="line2d_42">
      <g>
       <use xlink:href="#mde07bac09b" x="507.054545" y="320.4" style="stroke: #000000; stroke-width: 0.8"/>
      </g>
     </g>
     <g id="text_24">
      <!-- 0.1 -->
      <g transform="translate(499.102983 334.998438) scale(0.1 -0.1)">
       <use xlink:href="#DejaVuSans-30"/>
       <use xlink:href="#DejaVuSans-2e" transform="translate(63.623047 0)"/>
       <use xlink:href="#DejaVuSans-31" transform="translate(95.410156 0)"/>
      </g>
     </g>
    </g>
    <g id="xtick_13">
     <g id="line2d_43">
      <path d="M 540.872727 320.4 
L 540.872727 43.2 
" clip-path="url(#paa115610ec)" style="fill: none; stroke: #b0b0b0; stroke-width: 0.8; stroke-linecap: square"/>
     </g>
     <g id="line2d_44">
      <g>
       <use xlink:href="#mde07bac09b" x="540.872727" y="320.4" style="stroke: #000000; stroke-width: 0.8"/>
      </g>
     </g>
     <g id="text_25">
      <!-- 0.2 -->
      <g transform="translate(532.921165 334.998438) scale(0.1 -0.1)">
       <use xlink:href="#DejaVuSans-30"/>
       <use xlink:href="#DejaVuSans-2e" transform="translate(63.623047 0)"/>
       <use xlink:href="#DejaVuSans-32" transform="translate(95.410156 0)"/>
      </g>
     </g>
    </g>
    <g id="xtick_14">
     <g id="line2d_45">
      <path d="M 574.690909 320.4 
L 574.690909 43.2 
" clip-path="url(#paa115610ec)" style="fill: none; stroke: #b0b0b0; stroke-width: 0.8; stroke-linecap: square"/>
     </g>
     <g id="line2d_46">
      <g>
       <use xlink:href="#mde07bac09b" x="574.690909" y="320.4" style="stroke: #000000; stroke-width: 0.8"/>
      </g>
     </g>
     <g id="text_26">
      <!-- 0.3 -->
      <g transform="translate(566.739347 334.998438) scale(0.1 -0.1)">
       <use xlink:href="#DejaVuSans-30"/>
       <use xlink:href="#DejaVuSans-2e" transform="translate(63.623047 0)"/>
       <use xlink:href="#DejaVuSans-33" transform="translate(95.410156 0)"/>
      </g>
     </g>
    </g>
    <g id="xtick_15">
     <g id="line2d_47">
      <path d="M 608.509091 320.4 
L 608.509091 43.2 
" clip-path="url(#paa115610ec)" style="fill: none; stroke: #b0b0b0; stroke-width: 0.8; stroke-linecap: square"/>
     </g>
     <g id="line2d_48">
      <g>
       <use xlink:href="#mde07bac09b" x="608.509091" y="320.4" style="stroke: #000000; stroke-width: 0.8"/>
      </g>
     </g>
     <g id="text_27">
      <!-- 0.4 -->
      <g transform="translate(600.557528 334.998438) scale(0.1 -0.1)">
       <use xlink:href="#DejaVuSans-30"/>
       <use xlink:href="#DejaVuSans-2e" transform="translate(63.623047 0)"/>
       <use xlink:href="#DejaVuSans-34" transform="translate(95.410156 0)"/>
      </g>
     </g>
    </g>
    <g id="xtick_16">
     <g id="line2d_49">
      <path d="M 642.327273 320.4 
L 642.327273 43.2 
" clip-path="url(#paa115610ec)" style="fill: none; stroke: #b0b0b0; stroke-width: 0.8; stroke-linecap: square"/>
     </g>
     <g id="line2d_50">
      <g>
       <use xlink:href="#mde07bac09b" x="642.327273" y="320.4" style="stroke: #000000; stroke-width: 0.8"/>
      </g>
     </g>
     <g id="text_28">
      <!-- 0.5 -->
      <g transform="translate(634.37571 334.998438) scale(0.1 -0.1)">
       <use xlink:href="#DejaVuSans-30"/>
       <use xlink:href="#DejaVuSans-2e" transform="translate(63.623047 0)"/>
       <use xlink:href="#DejaVuSans-35" transform="translate(95.410156 0)"/>
      </g>
     </g>
    </g>
    <g id="xtick_17">
     <g id="line2d_51">
      <path d="M 676.145455 320.4 
L 676.145455 43.2 
" clip-path="url(#paa115610ec)" style="fill: none; stroke: #b0b0b0; stroke-width: 0.8; stroke-linecap: square"/>
     </g>
     <g id="line2d_52">
      <g>
       <use xlink:href="#mde07bac09b" x="676.145455" y="320.4" style="stroke: #000000; stroke-width: 0.8"/>
      </g>
     </g>
     <g id="text_29">
      <!-- 0.6 -->
      <g transform="translate(668.193892 334.998438) scale(0.1 -0.1)">
       <use xlink:href="#DejaVuSans-30"/>
       <use xlink:href="#DejaVuSans-2e" transform="translate(63.623047 0)"/>
       <use xlink:href="#DejaVuSans-36" transform="translate(95.410156 0)"/>
      </g>
     </g>
    </g>
    <g id="xtick_18">
     <g id="line2d_53">
      <path d="M 709.963636 320.4 
L 709.963636 43.2 
" clip-path="url(#paa115610ec)" style="fill: none; stroke: #b0b0b0; stroke-width: 0.8; stroke-linecap: square"/>
     </g>
     <g id="line2d_54">
      <g>
       <use xlink:href="#mde07bac09b" x="709.963636" y="320.4" style="stroke: #000000; stroke-width: 0.8"/>
      </g>
     </g>
     <g id="text_30">
      <!-- 0.7 -->
      <g transform="translate(702.012074 334.998438) scale(0.1 -0.1)">
       <use xlink:href="#DejaVuSans-30"/>
       <use xlink:href="#DejaVuSans-2e" transform="translate(63.623047 0)"/>
       <use xlink:href="#DejaVuSans-37" transform="translate(95.410156 0)"/>
      </g>
     </g>
    </g>
    <g id="xtick_19">
     <g id="line2d_55">
      <path d="M 743.781818 320.4 
L 743.781818 43.2 
" clip-path="url(#paa115610ec)" style="fill: none; stroke: #b0b0b0; stroke-width: 0.8; stroke-linecap: square"/>
     </g>
     <g id="line2d_56">
      <g>
       <use xlink:href="#mde07bac09b" x="743.781818" y="320.4" style="stroke: #000000; stroke-width: 0.8"/>
      </g>
     </g>
     <g id="text_31">
      <!-- 0.8 -->
      <g transform="translate(735.830256 334.998438) scale(0.1 -0.1)">
       <use xlink:href="#DejaVuSans-30"/>
       <use xlink:href="#DejaVuSans-2e" transform="translate(63.623047 0)"/>
       <use xlink:href="#DejaVuSans-38" transform="translate(95.410156 0)"/>
      </g>
     </g>
    </g>
    <g id="xtick_20">
     <g id="line2d_57">
      <path d="M 777.6 320.4 
L 777.6 43.2 
" clip-path="url(#paa115610ec)" style="fill: none; stroke: #b0b0b0; stroke-width: 0.8; stroke-linecap: square"/>
     </g>
     <g id="line2d_58">
      <g>
       <use xlink:href="#mde07bac09b" x="777.6" y="320.4" style="stroke: #000000; stroke-width: 0.8"/>
      </g>
     </g>
     <g id="text_32">
      <!-- 0.9 -->
      <g transform="translate(769.648437 334.998438) scale(0.1 -0.1)">
       <use xlink:href="#DejaVuSans-30"/>
       <use xlink:href="#DejaVuSans-2e" transform="translate(63.623047 0)"/>
       <use xlink:href="#DejaVuSans-39" transform="translate(95.410156 0)"/>
      </g>
     </g>
    </g>
    <g id="text_33">
     <!-- Confidence Threshold -->
     <g transform="translate(571.076776 348.676562) scale(0.1 -0.1)">
      <use xlink:href="#DejaVuSans-43"/>
      <use xlink:href="#DejaVuSans-6f" transform="translate(69.824219 0)"/>
      <use xlink:href="#DejaVuSans-6e" transform="translate(131.005859 0)"/>
      <use xlink:href="#DejaVuSans-66" transform="translate(194.384766 0)"/>
      <use xlink:href="#DejaVuSans-69" transform="translate(229.589844 0)"/>
      <use xlink:href="#DejaVuSans-64" transform="translate(257.373047 0)"/>
      <use xlink:href="#DejaVuSans-65" transform="translate(320.849609 0)"/>
      <use xlink:href="#DejaVuSans-6e" transform="translate(382.373047 0)"/>
      <use xlink:href="#DejaVuSans-63" transform="translate(445.751953 0)"/>
      <use xlink:href="#DejaVuSans-65" transform="translate(500.732422 0)"/>
      <use xlink:href="#DejaVuSans-20" transform="translate(562.255859 0)"/>
      <use xlink:href="#DejaVuSans-54" transform="translate(594.042969 0)"/>
      <use xlink:href="#DejaVuSans-68" transform="translate(655.126953 0)"/>
      <use xlink:href="#DejaVuSans-72" transform="translate(718.505859 0)"/>
      <use xlink:href="#DejaVuSans-65" transform="translate(757.369141 0)"/>
      <use xlink:href="#DejaVuSans-73" transform="translate(818.892578 0)"/>
      <use xlink:href="#DejaVuSans-68" transform="translate(870.992188 0)"/>
      <use xlink:href="#DejaVuSans-6f" transform="translate(934.371094 0)"/>
      <use xlink:href="#DejaVuSans-6c" transform="translate(995.552734 0)"/>
      <use xlink:href="#DejaVuSans-64" transform="translate(1023.335938 0)"/>
     </g>
    </g>
   </g>
   <g id="matplotlib.axis_4">
    <g id="ytick_8">
     <g id="line2d_59">
      <path d="M 473.236364 307.8 
L 777.6 307.8 
" clip-path="url(#paa115610ec)" style="fill: none; stroke: #b0b0b0; stroke-width: 0.8; stroke-linecap: square"/>
     </g>
     <g id="line2d_60">
      <g>
       <use xlink:href="#mb76adba754" x="473.236364" y="307.8" style="stroke: #000000; stroke-width: 0.8"/>
      </g>
     </g>
     <g id="text_34">
      <!-- 0.0 -->
      <g transform="translate(450.333239 311.599219) scale(0.1 -0.1)">
       <use xlink:href="#DejaVuSans-30"/>
       <use xlink:href="#DejaVuSans-2e" transform="translate(63.623047 0)"/>
       <use xlink:href="#DejaVuSans-30" transform="translate(95.410156 0)"/>
      </g>
     </g>
    </g>
    <g id="ytick_9">
     <g id="line2d_61">
      <path d="M 473.236364 256.09969 
L 777.6 256.09969 
" clip-path="url(#paa115610ec)" style="fill: none; stroke: #b0b0b0; stroke-width: 0.8; stroke-linecap: square"/>
     </g>
     <g id="line2d_62">
      <g>
       <use xlink:href="#mb76adba754" x="473.236364" y="256.09969" style="stroke: #000000; stroke-width: 0.8"/>
      </g>
     </g>
     <g id="text_35">
      <!-- 0.2 -->
      <g transform="translate(450.333239 259.898909) scale(0.1 -0.1)">
       <use xlink:href="#DejaVuSans-30"/>
       <use xlink:href="#DejaVuSans-2e" transform="translate(63.623047 0)"/>
       <use xlink:href="#DejaVuSans-32" transform="translate(95.410156 0)"/>
      </g>
     </g>
    </g>
    <g id="ytick_10">
     <g id="line2d_63">
      <path d="M 473.236364 204.399381 
L 777.6 204.399381 
" clip-path="url(#paa115610ec)" style="fill: none; stroke: #b0b0b0; stroke-width: 0.8; stroke-linecap: square"/>
     </g>
     <g id="line2d_64">
      <g>
       <use xlink:href="#mb76adba754" x="473.236364" y="204.399381" style="stroke: #000000; stroke-width: 0.8"/>
      </g>
     </g>
     <g id="text_36">
      <!-- 0.4 -->
      <g transform="translate(450.333239 208.1986) scale(0.1 -0.1)">
       <use xlink:href="#DejaVuSans-30"/>
       <use xlink:href="#DejaVuSans-2e" transform="translate(63.623047 0)"/>
       <use xlink:href="#DejaVuSans-34" transform="translate(95.410156 0)"/>
      </g>
     </g>
    </g>
    <g id="ytick_11">
     <g id="line2d_65">
      <path d="M 473.236364 152.699071 
L 777.6 152.699071 
" clip-path="url(#paa115610ec)" style="fill: none; stroke: #b0b0b0; stroke-width: 0.8; stroke-linecap: square"/>
     </g>
     <g id="line2d_66">
      <g>
       <use xlink:href="#mb76adba754" x="473.236364" y="152.699071" style="stroke: #000000; stroke-width: 0.8"/>
      </g>
     </g>
     <g id="text_37">
      <!-- 0.6 -->
      <g transform="translate(450.333239 156.49829) scale(0.1 -0.1)">
       <use xlink:href="#DejaVuSans-30"/>
       <use xlink:href="#DejaVuSans-2e" transform="translate(63.623047 0)"/>
       <use xlink:href="#DejaVuSans-36" transform="translate(95.410156 0)"/>
      </g>
     </g>
    </g>
    <g id="ytick_12">
     <g id="line2d_67">
      <path d="M 473.236364 100.998762 
L 777.6 100.998762 
" clip-path="url(#paa115610ec)" style="fill: none; stroke: #b0b0b0; stroke-width: 0.8; stroke-linecap: square"/>
     </g>
     <g id="line2d_68">
      <g>
       <use xlink:href="#mb76adba754" x="473.236364" y="100.998762" style="stroke: #000000; stroke-width: 0.8"/>
      </g>
     </g>
     <g id="text_38">
      <!-- 0.8 -->
      <g transform="translate(450.333239 104.79798) scale(0.1 -0.1)">
       <use xlink:href="#DejaVuSans-30"/>
       <use xlink:href="#DejaVuSans-2e" transform="translate(63.623047 0)"/>
       <use xlink:href="#DejaVuSans-38" transform="translate(95.410156 0)"/>
      </g>
     </g>
    </g>
    <g id="ytick_13">
     <g id="line2d_69">
      <path d="M 473.236364 49.298452 
L 777.6 49.298452 
" clip-path="url(#paa115610ec)" style="fill: none; stroke: #b0b0b0; stroke-width: 0.8; stroke-linecap: square"/>
     </g>
     <g id="line2d_70">
      <g>
       <use xlink:href="#mb76adba754" x="473.236364" y="49.298452" style="stroke: #000000; stroke-width: 0.8"/>
      </g>
     </g>
     <g id="text_39">
      <!-- 1.0 -->
      <g transform="translate(450.333239 53.097671) scale(0.1 -0.1)">
       <use xlink:href="#DejaVuSans-31"/>
       <use xlink:href="#DejaVuSans-2e" transform="translate(63.623047 0)"/>
       <use xlink:href="#DejaVuSans-30" transform="translate(95.410156 0)"/>
      </g>
     </g>
    </g>
    <g id="text_40">
     <!-- Fraction of Games Bet -->
     <g transform="translate(444.253551 237.303125) rotate(-90) scale(0.1 -0.1)">
      <defs>
       <path id="DejaVuSans-46" d="M 628 4666 
L 3309 4666 
L 3309 4134 
L 1259 4134 
L 1259 2759 
L 3109 2759 
L 3109 2228 
L 1259 2228 
L 1259 0 
L 628 0 
L 628 4666 
z
" transform="scale(0.015625)"/>
       <path id="DejaVuSans-74" d="M 1172 4494 
L 1172 3500 
L 2356 3500 
L 2356 3053 
L 1172 3053 
L 1172 1153 
Q 1172 725 1289 603 
Q 1406 481 1766 481 
L 2356 481 
L 2356 0 
L 1766 0 
Q 1100 0 847 248 
Q 594 497 594 1153 
L 594 3053 
L 172 3053 
L 172 3500 
L 594 3500 
L 594 4494 
L 1172 4494 
z
" transform="scale(0.015625)"/>
       <path id="DejaVuSans-47" d="M 3809 666 
L 3809 1919 
L 2778 1919 
L 2778 2438 
L 4434 2438 
L 4434 434 
Q 4069 175 3628 42 
Q 3188 -91 2688 -91 
Q 1594 -91 976 548 
Q 359 1188 359 2328 
Q 359 3472 976 4111 
Q 1594 4750 2688 4750 
Q 3144 4750 3555 4637 
Q 3966 4525 4313 4306 
L 4313 3634 
Q 3963 3931 3569 4081 
Q 3175 4231 2741 4231 
Q 1884 4231 1454 3753 
Q 1025 3275 1025 2328 
Q 1025 1384 1454 906 
Q 1884 428 2741 428 
Q 3075 428 3337 486 
Q 3600 544 3809 666 
z
" transform="scale(0.015625)"/>
       <path id="DejaVuSans-6d" d="M 3328 2828 
Q 3544 3216 3844 3400 
Q 4144 3584 4550 3584 
Q 5097 3584 5394 3201 
Q 5691 2819 5691 2113 
L 5691 0 
L 5113 0 
L 5113 2094 
Q 5113 2597 4934 2840 
Q 4756 3084 4391 3084 
Q 3944 3084 3684 2787 
Q 3425 2491 3425 1978 
L 3425 0 
L 2847 0 
L 2847 2094 
Q 2847 2600 2669 2842 
Q 2491 3084 2119 3084 
Q 1678 3084 1418 2786 
Q 1159 2488 1159 1978 
L 1159 0 
L 581 0 
L 581 3500 
L 1159 3500 
L 1159 2956 
Q 1356 3278 1631 3431 
Q 1906 3584 2284 3584 
Q 2666 3584 2933 3390 
Q 3200 3197 3328 2828 
z
" transform="scale(0.015625)"/>
       <path id="DejaVuSans-42" d="M 1259 2228 
L 1259 519 
L 2272 519 
Q 2781 519 3026 730 
Q 3272 941 3272 1375 
Q 3272 1813 3026 2020 
Q 2781 2228 2272 2228 
L 1259 2228 
z
M 1259 4147 
L 1259 2741 
L 2194 2741 
Q 2656 2741 2882 2914 
Q 3109 3088 3109 3444 
Q 3109 3797 2882 3972 
Q 2656 4147 2194 4147 
L 1259 4147 
z
M 628 4666 
L 2241 4666 
Q 2963 4666 3353 4366 
Q 3744 4066 3744 3513 
Q 3744 3084 3544 2831 
Q 3344 2578 2956 2516 
Q 3422 2416 3680 2098 
Q 3938 1781 3938 1306 
Q 3938 681 3513 340 
Q 3088 0 2303 0 
L 628 0 
L 628 4666 
z
" transform="scale(0.015625)"/>
      </defs>
      <use xlink:href="#DejaVuSans-46"/>
      <use xlink:href="#DejaVuSans-72" transform="translate(50.269531 0)"/>
      <use xlink:href="#DejaVuSans-61" transform="translate(91.382812 0)"/>
      <use xlink:href="#DejaVuSans-63" transform="translate(152.662109 0)"/>
      <use xlink:href="#DejaVuSans-74" transform="translate(207.642578 0)"/>
      <use xlink:href="#DejaVuSans-69" transform="translate(246.851562 0)"/>
      <use xlink:href="#DejaVuSans-6f" transform="translate(274.634766 0)"/>
      <use xlink:href="#DejaVuSans-6e" transform="translate(335.816406 0)"/>
      <use xlink:href="#DejaVuSans-20" transform="translate(399.195312 0)"/>
      <use xlink:href="#DejaVuSans-6f" transform="translate(430.982422 0)"/>
      <use xlink:href="#DejaVuSans-66" transform="translate(492.164062 0)"/>
      <use xlink:href="#DejaVuSans-20" transform="translate(527.369141 0)"/>
      <use xlink:href="#DejaVuSans-47" transform="translate(559.15625 0)"/>
      <use xlink:href="#DejaVuSans-61" transform="translate(636.646484 0)"/>
      <use xlink:href="#DejaVuSans-6d" transform="translate(697.925781 0)"/>
      <use xlink:href="#DejaVuSans-65" transform="translate(795.337891 0)"/>
      <use xlink:href="#DejaVuSans-73" transform="translate(856.861328 0)"/>
      <use xlink:href="#DejaVuSans-20" transform="translate(908.960938 0)"/>
      <use xlink:href="#DejaVuSans-42" transform="translate(940.748047 0)"/>
      <use xlink:href="#DejaVuSans-65" transform="translate(1009.351562 0)"/>
      <use xlink:href="#DejaVuSans-74" transform="translate(1070.875 0)"/>
     </g>
    </g>
   </g>
   <g id="line2d_71">
    <path d="M 473.236364 55.973375 
L 476.618182 61.174613 
L 480 61.174613 
L 483.381818 70.450155 
L 486.763636 70.450155 
L 490.145455 81.026006 
L 493.527273 81.026006 
L 496.909091 90.214861 
L 500.290909 90.214861 
L 503.672727 99.317028 
L 507.054545 99.317028 
L 510.436364 108.939319 
L 513.818182 108.939319 
L 517.2 116.654489 
L 520.581818 116.654489 
L 523.963636 125.32322 
L 527.345455 125.32322 
L 530.727273 134.078638 
L 534.109091 134.078638 
L 537.490909 144.047678 
L 540.872727 144.047678 
L 544.254545 153.32322 
L 547.636364 153.32322 
L 551.018182 162.3387 
L 554.4 162.3387 
L 557.781818 170.834056 
L 561.163636 170.834056 
L 564.545455 178.722601 
L 567.927273 178.722601 
L 571.309091 186.611146 
L 574.690909 186.611146 
L 578.072727 195.279876 
L 581.454545 195.279876 
L 584.836364 202.474923 
L 588.218182 202.474923 
L 591.6 210.623529 
L 594.981818 210.623529 
L 598.363636 217.558514 
L 601.745455 217.558514 
L 605.127273 224.666873 
L 608.509091 224.666873 
L 611.890909 231.341796 
L 615.272727 231.341796 
L 618.654545 237.496594 
L 622.036364 237.496594 
L 625.418182 243.304644 
L 628.8 243.304644 
L 632.181818 249.112693 
L 635.563636 249.112693 
L 638.945455 254.313932 
L 642.327273 254.313932 
L 645.709091 259.601858 
L 649.090909 259.601858 
L 652.472727 264.109598 
L 655.854545 264.109598 
L 659.236364 268.617337 
L 662.618182 268.617337 
L 666 273.03839 
L 669.381818 273.03839 
L 672.763636 277.112693 
L 676.145455 277.112693 
L 679.527273 279.626625 
L 682.909091 279.626625 
L 686.290909 282.920743 
L 689.672727 282.920743 
L 693.054545 286.041486 
L 696.436364 286.041486 
L 699.818182 288.468731 
L 703.2 288.468731 
L 706.581818 291.502786 
L 709.963636 294.710217 
L 713.345455 294.710217 
L 716.727273 294.710217 
L 720.109091 296.010526 
L 723.490909 296.010526 
L 726.872727 298.437771 
L 730.254545 298.437771 
L 733.636364 299.911455 
L 737.018182 299.911455 
L 740.4 301.211765 
L 743.781818 301.211765 
L 747.163636 302.945511 
L 750.545455 303.639009 
L 753.927273 303.639009 
L 757.309091 303.639009 
L 760.690909 305.112693 
L 764.072727 305.112693 
L 767.454545 306.066254 
L 770.836364 306.066254 
L 774.218182 306.413003 
L 777.6 306.413003 
L 780.981818 306.673065 
L 784.363636 306.673065 
L 787.745455 307.193189 
L 791.127273 307.366563 
L 794.509091 307.366563 
L 797.890909 307.366563 
L 801.272727 307.626625 
L 804.654545 307.626625 
L 808.036364 307.713313 
L 811.418182 307.713313 
" clip-path="url(#paa115610ec)" style="fill: none; stroke: #008000; stroke-width: 1.5; stroke-linecap: square"/>
   </g>
   <g id="line2d_72">
    <path d="M 473.236364 55.8 
L 476.618182 60.047678 
L 480 60.047678 
L 483.381818 70.796904 
L 486.763636 70.796904 
L 490.145455 81.372755 
L 493.527273 81.372755 
L 496.909091 90.474923 
L 500.290909 90.474923 
L 503.672727 98.796904 
L 507.054545 98.796904 
L 510.436364 107.812384 
L 513.818182 107.812384 
L 517.2 115.527554 
L 520.581818 115.527554 
L 523.963636 125.236533 
L 527.345455 125.236533 
L 530.727273 133.645201 
L 534.109091 133.645201 
L 537.490909 142.400619 
L 540.872727 142.400619 
L 544.254545 150.289164 
L 547.636364 150.289164 
L 551.018182 159.478019 
L 554.4 159.478019 
L 557.781818 169.533746 
L 561.163636 169.533746 
L 564.545455 177.422291 
L 567.927273 177.422291 
L 571.309091 186.697833 
L 574.690909 186.697833 
L 578.072727 195.019814 
L 581.454545 195.019814 
L 584.836364 203.86192 
L 588.218182 203.86192 
L 591.6 210.536842 
L 594.981818 210.536842 
L 598.363636 217.731889 
L 601.745455 217.731889 
L 605.127273 224.406811 
L 608.509091 224.406811 
L 611.890909 231.688545 
L 615.272727 231.688545 
L 618.654545 237.149845 
L 622.036364 237.149845 
L 625.418182 243.824768 
L 628.8 243.824768 
L 632.181818 249.286068 
L 635.563636 249.286068 
L 638.945455 254.747368 
L 642.327273 254.747368 
L 645.709091 259.86192 
L 649.090909 259.86192 
L 652.472727 264.02291 
L 655.854545 264.02291 
L 659.236364 268.617337 
L 662.618182 268.617337 
L 666 273.385139 
L 669.381818 273.385139 
L 672.763636 277.372755 
L 676.145455 277.372755 
L 679.527273 280.580186 
L 682.909091 280.580186 
L 686.290909 284.30774 
L 689.672727 284.30774 
L 693.054545 287.168421 
L 696.436364 287.168421 
L 699.818182 289.76904 
L 703.2 289.76904 
L 706.581818 291.416099 
L 709.963636 293.843344 
L 713.345455 293.843344 
L 716.727273 293.843344 
L 720.109091 296.443963 
L 723.490909 296.443963 
L 726.872727 298.264396 
L 730.254545 298.264396 
L 733.636364 299.911455 
L 737.018182 299.911455 
L 740.4 300.691641 
L 743.781818 300.691641 
L 747.163636 302.3387 
L 750.545455 303.725697 
L 753.927273 303.725697 
L 757.309091 303.725697 
L 760.690909 304.679257 
L 764.072727 304.679257 
L 767.454545 305.54613 
L 770.836364 305.54613 
L 774.218182 305.892879 
L 777.6 305.892879 
L 780.981818 306.326316 
L 784.363636 306.326316 
L 787.745455 306.673065 
L 791.127273 307.193189 
L 794.509091 307.193189 
L 797.890909 307.193189 
L 801.272727 307.453251 
L 804.654545 307.453251 
L 808.036364 307.8 
L 811.418182 307.8 
" clip-path="url(#paa115610ec)" style="fill: none; stroke: #0000ff; stroke-width: 1.5; stroke-linecap: square"/>
   </g>
   <g id="patch_9">
    <path d="M 473.236364 320.4 
L 473.236364 43.2 
" style="fill: none; stroke: #000000; stroke-width: 0.8; stroke-linejoin: miter; stroke-linecap: square"/>
   </g>
   <g id="patch_10">
    <path d="M 777.6 320.4 
L 777.6 43.2 
" style="fill: none; stroke: #000000; stroke-width: 0.8; stroke-linejoin: miter; stroke-linecap: square"/>
   </g>
   <g id="patch_11">
    <path d="M 473.236364 320.4 
L 777.6 320.4 
" style="fill: none; stroke: #000000; stroke-width: 0.8; stroke-linejoin: miter; stroke-linecap: square"/>
   </g>
   <g id="patch_12">
    <path d="M 473.236364 43.2 
L 777.6 43.2 
" style="fill: none; stroke: #000000; stroke-width: 0.8; stroke-linejoin: miter; stroke-linecap: square"/>
   </g>
   <g id="text_41">
    <!-- Fraction of Games Bet vs Confidence Threshold -->
    <g transform="translate(483.114119 37.2) scale(0.12 -0.12)">
     <use xlink:href="#DejaVuSans-46"/>
     <use xlink:href="#DejaVuSans-72" transform="translate(50.269531 0)"/>
     <use xlink:href="#DejaVuSans-61" transform="translate(91.382812 0)"/>
     <use xlink:href="#DejaVuSans-63" transform="translate(152.662109 0)"/>
     <use xlink:href="#DejaVuSans-74" transform="translate(207.642578 0)"/>
     <use xlink:href="#DejaVuSans-69" transform="translate(246.851562 0)"/>
     <use xlink:href="#DejaVuSans-6f" transform="translate(274.634766 0)"/>
     <use xlink:href="#DejaVuSans-6e" transform="translate(335.816406 0)"/>
     <use xlink:href="#DejaVuSans-20" transform="translate(399.195312 0)"/>
     <use xlink:href="#DejaVuSans-6f" transform="translate(430.982422 0)"/>
     <use xlink:href="#DejaVuSans-66" transform="translate(492.164062 0)"/>
     <use xlink:href="#DejaVuSans-20" transform="translate(527.369141 0)"/>
     <use xlink:href="#DejaVuSans-47" transform="translate(559.15625 0)"/>
     <use xlink:href="#DejaVuSans-61" transform="translate(636.646484 0)"/>
     <use xlink:href="#DejaVuSans-6d" transform="translate(697.925781 0)"/>
     <use xlink:href="#DejaVuSans-65" transform="translate(795.337891 0)"/>
     <use xlink:href="#DejaVuSans-73" transform="translate(856.861328 0)"/>
     <use xlink:href="#DejaVuSans-20" transform="translate(908.960938 0)"/>
     <use xlink:href="#DejaVuSans-42" transform="translate(940.748047 0)"/>
     <use xlink:href="#DejaVuSans-65" transform="translate(1009.351562 0)"/>
     <use xlink:href="#DejaVuSans-74" transform="translate(1070.875 0)"/>
     <use xlink:href="#DejaVuSans-20" transform="translate(1110.083984 0)"/>
     <use xlink:href="#DejaVuSans-76" transform="translate(1141.871094 0)"/>
     <use xlink:href="#DejaVuSans-73" transform="translate(1201.050781 0)"/>
     <use xlink:href="#DejaVuSans-20" transform="translate(1253.150391 0)"/>
     <use xlink:href="#DejaVuSans-43" transform="translate(1284.9375 0)"/>
     <use xlink:href="#DejaVuSans-6f" transform="translate(1354.761719 0)"/>
     <use xlink:href="#DejaVuSans-6e" transform="translate(1415.943359 0)"/>
     <use xlink:href="#DejaVuSans-66" transform="translate(1479.322266 0)"/>
     <use xlink:href="#DejaVuSans-69" transform="translate(1514.527344 0)"/>
     <use xlink:href="#DejaVuSans-64" transform="translate(1542.310547 0)"/>
     <use xlink:href="#DejaVuSans-65" transform="translate(1605.787109 0)"/>
     <use xlink:href="#DejaVuSans-6e" transform="translate(1667.310547 0)"/>
     <use xlink:href="#DejaVuSans-63" transform="translate(1730.689453 0)"/>
     <use xlink:href="#DejaVuSans-65" transform="translate(1785.669922 0)"/>
     <use xlink:href="#DejaVuSans-20" transform="translate(1847.193359 0)"/>
     <use xlink:href="#DejaVuSans-54" transform="translate(1878.980469 0)"/>
     <use xlink:href="#DejaVuSans-68" transform="translate(1940.064453 0)"/>
     <use xlink:href="#DejaVuSans-72" transform="translate(2003.443359 0)"/>
     <use xlink:href="#DejaVuSans-65" transform="translate(2042.306641 0)"/>
     <use xlink:href="#DejaVuSans-73" transform="translate(2103.830078 0)"/>
     <use xlink:href="#DejaVuSans-68" transform="translate(2155.929688 0)"/>
     <use xlink:href="#DejaVuSans-6f" transform="translate(2219.308594 0)"/>
     <use xlink:href="#DejaVuSans-6c" transform="translate(2280.490234 0)"/>
     <use xlink:href="#DejaVuSans-64" transform="translate(2308.273438 0)"/>
    </g>
   </g>
  </g>
 </g>
 <defs>
  <clipPath id="pef6e050859">
   <rect x="108" y="43.2" width="304.363636" height="277.2"/>
  </clipPath>
  <clipPath id="paa115610ec">
   <rect x="473.236364" y="43.2" width="304.363636" height="277.2"/>
  </clipPath>
 </defs>
</svg>
